<?xml version="1.0" standalone="no"?>
<!DOCTYPE svg PUBLIC "-//W3C//DTD SVG 20010904//EN"
 "http://www.w3.org/TR/2001/REC-SVG-20010904/DTD/svg10.dtd">
<svg version="1.0" xmlns="http://www.w3.org/2000/svg"
 width="1920.000000pt" height="1920.000000pt" viewBox="0 0 1920.000000 1920.000000"
 preserveAspectRatio="xMidYMid meet">

<g transform="translate(0.000000,1920.000000) scale(0.100000,-0.100000)"
fill="#000000" stroke="none">
<path d="M9360 17664 c-678 -31 -1214 -107 -1780 -255 -1264 -329 -2428 -960
-3395 -1839 -172 -157 -496 -485 -631 -640 -1192 -1363 -1883 -3036 -1995
-4830 -14 -226 -14 -776 0 -1000 68 -1080 346 -2122 821 -3079 518 -1045 1278
-1986 2200 -2726 1099 -880 2429 -1461 3829 -1671 526 -79 1194 -105 1747 -69
1829 120 3559 863 4914 2111 1603 1476 2533 3508 2598 5680 23 765 -49 1463
-228 2190 -443 1804 -1492 3387 -2995 4521 -947 714 -2079 1221 -3245 1453
-502 100 -949 146 -1484 154 -154 2 -315 2 -356 0z m565 -84 c2428 -102 4625
-1259 6086 -3205 842 -1122 1371 -2458 1534 -3875 44 -378 59 -991 36 -1380
-97 -1568 -631 -3029 -1566 -4285 -1239 -1663 -3086 -2790 -5105 -3114 -501
-80 -711 -96 -1305 -95 -452 0 -535 2 -730 22 -948 95 -1770 316 -2605 699
-1439 660 -2671 1761 -3495 3122 -803 1328 -1198 2844 -1145 4401 5 146 14
321 20 390 109 1252 485 2415 1124 3470 922 1523 2326 2697 3989 3334 997 382
2093 561 3162 516z"/>
<path d="M9256 17108 c-2 -7 -15 -53 -28 -103 -14 -49 -27 -97 -29 -105 -7
-25 38 -25 46 1 12 37 75 98 113 109 57 16 261 13 268 -3 3 -8 0 -201 -5 -430
-12 -467 -14 -482 -73 -491 -18 -3 -46 -7 -63 -8 -18 -2 -31 -9 -33 -19 -3
-14 23 -17 209 -23 134 -5 215 -4 222 3 15 15 -2 31 -34 31 -16 0 -45 6 -63
14 -28 12 -35 21 -40 53 -8 47 11 850 20 865 5 7 49 9 133 6 103 -4 134 -9
168 -26 42 -22 47 -30 58 -94 7 -36 32 -59 40 -35 2 6 9 55 15 107 6 52 13
105 17 118 7 29 -16 29 -41 1 l-18 -22 -387 7 c-212 4 -400 11 -418 17 -17 5
-34 16 -37 24 -7 18 -35 20 -40 3z"/>
<path d="M8789 17026 c-4 -4 -185 -28 -316 -41 -53 -6 -63 -10 -63 -26 0 -16
8 -19 53 -19 40 0 58 -5 71 -19 19 -21 35 -107 61 -331 9 -80 25 -214 36 -298
31 -247 26 -272 -57 -293 -33 -9 -44 -16 -44 -31 0 -17 5 -19 38 -14 83 13
270 36 312 38 33 2 46 8 48 20 3 13 -8 18 -53 23 -85 11 -85 12 -128 368 -62
509 -62 512 -44 540 10 15 31 27 59 33 34 7 44 14 46 32 3 19 -7 29 -19 18z"/>
<path d="M10600 16995 c0 -8 20 -25 45 -36 50 -24 66 -47 95 -142 73 -237 130
-456 130 -498 0 -71 -46 -280 -69 -309 -16 -22 -26 -25 -77 -25 -47 0 -59 -3
-62 -17 -4 -19 8 -23 103 -38 39 -6 123 -23 188 -37 83 -18 121 -23 129 -15
16 16 2 29 -44 40 -71 18 -82 32 -81 95 2 72 41 262 65 313 10 22 77 108 149
190 224 255 244 273 323 279 47 3 64 31 24 39 -13 2 -72 15 -133 27 -136 27
-149 28 -153 8 -2 -11 10 -19 38 -28 73 -22 73 -21 -99 -231 -52 -63 -114
-137 -137 -163 l-44 -49 -11 29 c-26 69 -121 452 -116 467 5 11 19 16 52 16
37 0 45 3 45 19 0 15 -10 20 -47 26 -27 3 -101 17 -167 31 -139 28 -146 29
-146 9z"/>
<path d="M7800 16869 c-126 -21 -244 -110 -270 -204 -18 -65 -8 -155 24 -209
47 -81 110 -120 291 -183 169 -58 218 -99 246 -203 18 -68 5 -117 -44 -166
-47 -46 -95 -64 -172 -64 -83 1 -155 45 -226 139 -16 23 -30 32 -38 27 -16
-10 -8 -41 34 -133 42 -91 54 -97 190 -90 160 7 267 60 330 161 24 40 30 62
33 120 5 95 -22 169 -85 230 -53 52 -92 72 -261 131 -178 62 -234 114 -235
218 -2 90 51 147 154 168 91 18 171 -16 216 -92 20 -34 53 -39 53 -8 0 11 -14
54 -31 95 l-31 74 -61 -1 c-34 -1 -87 -5 -117 -10z"/>
<path d="M6580 16426 c-112 -34 -430 -178 -430 -195 1 -24 17 -29 64 -18 48
11 49 11 75 -20 34 -41 331 -733 331 -771 0 -29 -25 -59 -67 -81 -24 -12 -30
-35 -13 -46 5 -3 40 10 77 28 37 19 116 53 176 77 96 38 124 58 99 74 -4 2
-29 -1 -55 -7 -72 -16 -83 -2 -178 221 -27 63 -49 119 -49 126 0 16 59 44 108
52 35 6 48 -1 182 -92 174 -117 250 -154 328 -161 66 -6 147 13 202 49 l35 23
-80 5 c-66 5 -95 13 -165 47 -94 46 -360 219 -360 234 0 6 11 25 24 42 93 122
89 264 -9 363 -42 42 -61 54 -104 63 -73 15 -105 13 -191 -13z m125 -86 c80
-49 129 -139 130 -236 0 -89 -30 -130 -136 -183 -45 -23 -90 -41 -100 -41 -11
0 -26 14 -38 38 -43 84 -152 355 -149 371 3 17 95 67 138 74 44 8 124 -4 155
-23z"/>
<path d="M12603 16325 c-128 -35 -232 -111 -306 -223 -62 -93 -88 -170 -94
-272 -9 -151 35 -274 137 -383 188 -201 491 -248 706 -109 185 119 293 367
250 572 -23 107 -60 174 -141 255 -77 78 -197 144 -293 164 -72 15 -196 13
-259 -4z m319 -65 c107 -40 193 -130 223 -234 34 -114 10 -286 -60 -427 -63
-129 -135 -205 -235 -253 -55 -26 -77 -31 -140 -31 -63 0 -86 5 -141 32 -119
56 -185 135 -214 255 -30 127 -10 251 65 403 116 236 303 331 502 255z"/>
<path d="M5559 15887 c-59 -40 -188 -124 -287 -187 -100 -63 -181 -120 -182
-127 0 -21 19 -24 49 -8 46 23 74 19 108 -17 17 -18 113 -161 215 -318 275
-426 261 -392 194 -456 -46 -44 -54 -58 -37 -69 5 -3 101 55 213 129 112 73
257 167 323 209 138 86 133 74 91 215 -18 61 -27 77 -42 77 -17 0 -19 -9 -20
-85 0 -47 -6 -95 -13 -108 -28 -52 -237 -191 -301 -199 -38 -5 -44 -3 -83 39
-23 24 -77 99 -120 167 -63 98 -76 125 -67 136 16 19 179 121 208 130 23 7 92
-27 92 -45 0 -14 41 -23 52 -12 6 6 -7 33 -40 78 -27 38 -64 95 -82 126 -36
65 -47 75 -63 59 -7 -7 -5 -26 8 -65 18 -54 18 -56 0 -76 -17 -19 -154 -113
-202 -138 -21 -11 -25 -7 -69 60 -27 40 -74 113 -106 162 -32 48 -58 96 -58
105 0 17 24 34 154 113 125 76 166 79 243 20 31 -23 69 -24 61 -3 -5 15 -122
161 -128 160 -3 0 -53 -33 -111 -72z"/>
<path d="M13840 15745 c-10 -12 -7 -21 19 -50 17 -20 31 -44 31 -53 0 -10 -14
-40 -31 -67 -51 -80 -460 -615 -483 -630 -28 -20 -49 -19 -97 5 -40 21 -59 20
-58 -3 0 -7 40 -41 90 -76 49 -36 122 -91 162 -122 64 -52 74 -57 87 -43 13
13 11 18 -18 40 -18 14 -39 39 -47 55 -14 26 -14 32 1 60 19 38 208 294 224
304 11 7 81 -41 178 -122 58 -49 64 -74 37 -139 -8 -20 -12 -40 -9 -45 13 -21
35 -5 75 54 23 34 64 87 91 118 26 31 48 61 48 67 0 25 -32 18 -71 -13 -22
-19 -49 -35 -58 -35 -18 0 -125 70 -201 131 -27 22 -40 39 -37 50 6 22 228
317 244 323 7 3 60 -32 118 -76 81 -61 112 -92 128 -124 20 -43 20 -45 3 -99
-16 -52 -15 -75 3 -75 9 0 121 155 120 167 0 4 -94 77 -207 161 -114 84 -235
175 -268 203 -53 42 -63 47 -74 34z"/>
<path d="M9125 15634 c-1031 -85 -1994 -417 -2845 -979 -1146 -757 -1998
-1872 -2423 -3170 -31 -93 -65 -204 -76 -245 -157 -590 -221 -1062 -221 -1638
0 -1090 273 -2107 823 -3057 74 -127 282 -438 388 -580 281 -375 669 -776
1034 -1071 556 -448 1205 -806 1865 -1027 473 -159 917 -251 1445 -299 185
-17 805 -17 990 0 821 75 1526 275 2229 629 954 481 1765 1209 2351 2108 515
791 836 1688 939 2625 42 378 46 911 11 1245 -137 1314 -637 2466 -1491 3435
-959 1088 -2290 1798 -3732 1990 -376 50 -922 65 -1287 34z m1118 -93 c772
-90 1452 -294 2102 -630 1649 -853 2805 -2412 3140 -4236 126 -685 126 -1467
-1 -2153 -66 -359 -171 -735 -294 -1052 -12 -30 -27 -71 -35 -90 -64 -172
-247 -547 -370 -760 -522 -903 -1271 -1655 -2180 -2186 -187 -109 -561 -292
-761 -373 -681 -273 -1366 -412 -2104 -427 -713 -15 -1345 79 -2000 295 -454
151 -835 327 -1240 574 -1198 730 -2106 1867 -2553 3197 -149 442 -238 868
-289 1385 -18 177 -17 855 0 1035 75 748 242 1369 542 2011 684 1465 1947
2599 3482 3124 419 144 879 243 1338 289 227 23 241 24 660 21 312 -3 419 -7
563 -24z"/>
<path d="M9270 15344 c-19 -2 -93 -9 -165 -15 -895 -75 -1771 -369 -2550 -857
-1452 -909 -2434 -2443 -2650 -4139 -96 -752 -35 -1587 167 -2288 230 -800
597 -1491 1138 -2145 129 -156 535 -563 695 -696 845 -703 1819 -1141 2874
-1293 309 -45 462 -55 826 -56 342 0 457 7 730 41 886 112 1735 432 2490 939
148 100 326 235 500 379 160 133 545 519 679 681 773 930 1206 1960 1332 3170
25 239 25 840 1 1075 -79 742 -255 1361 -567 1995 -680 1378 -1885 2434 -3330
2918 -415 139 -796 221 -1265 273 -141 15 -811 29 -905 18z m725 -84 c977 -66
1918 -385 2748 -934 514 -339 1047 -845 1419 -1346 498 -672 846 -1451 1007
-2255 138 -688 148 -1393 30 -2085 -253 -1490 -1114 -2836 -2369 -3704 -1185
-820 -2606 -1152 -4050 -945 -583 83 -1184 274 -1720 545 -1613 816 -2752
2362 -3045 4131 -60 363 -79 632 -72 1033 6 391 33 660 102 1007 186 932 599
1788 1227 2545 134 162 529 556 693 692 937 778 2064 1236 3240 1315 176 12
617 12 790 1z"/>
<path d="M8665 13660 c-1001 -24 -2215 -98 -2703 -165 l-42 -6 3 -2627 3
-2627 26 -165 c15 -91 38 -223 53 -295 269 -1317 1023 -2312 2205 -2909 393
-199 860 -359 1235 -422 111 -19 146 -16 355 32 646 146 1264 419 1752 775
327 238 653 567 886 895 392 551 650 1259 742 2034 19 160 20 244 20 2738 0
1638 -3 2572 -10 2572 -5 0 -53 4 -107 10 -656 65 -1618 124 -2438 150 -451
14 -1564 20 -1980 10z m396 -481 c116 -15 255 -55 357 -104 l92 -44 0 -1091
c0 -599 -2 -1090 -4 -1090 -2 0 -34 14 -72 31 -193 88 -415 139 -599 139 -133
0 -218 -14 -595 -95 -351 -75 -486 -96 -677 -102 l-173 -6 0 1117 0 1117 33
-5 c65 -11 304 -26 417 -26 175 0 268 15 435 69 301 99 519 124 786 90z m1604
-38 c291 -95 479 -124 805 -125 124 -1 255 3 293 7 l67 8 0 -1112 0 -1112
-152 6 c-206 9 -364 32 -833 122 -126 25 -282 54 -345 65 -278 48 -580 8 -803
-107 -40 -21 -75 -39 -80 -41 -4 -2 -6 486 -5 1085 l3 1088 120 44 c133 48
313 96 420 110 39 5 140 8 225 7 151 -3 159 -5 285 -45z m-3887 -507 c169 -70
186 -327 28 -419 -131 -77 -309 -11 -346 127 -34 125 31 266 138 298 45 14
141 11 180 -6z m5251 -103 c97 -27 141 -26 261 4 83 21 106 23 151 15 100 -19
172 -79 204 -169 21 -59 20 -62 -17 -44 -18 10 -56 16 -90 16 -51 -1 -77 -10
-206 -71 -234 -112 -317 -142 -386 -142 l-26 0 0 211 c0 197 1 211 18 206 9
-3 50 -15 91 -26z m-4749 -136 l0 -135 -135 0 -135 0 0 135 0 135 135 0 135 0
0 -135z m-540 -696 c122 -28 199 -156 170 -281 -24 -98 -84 -159 -176 -178
-128 -27 -246 40 -280 158 -40 135 33 271 161 301 54 12 72 12 125 0z m5390
-44 c85 0 198 4 250 9 87 8 99 7 136 -12 55 -28 98 -79 123 -147 27 -73 27
-76 -11 -57 -22 12 -57 17 -108 17 -72 0 -79 -2 -155 -48 -95 -56 -240 -109
-355 -131 -45 -9 -86 -16 -91 -16 -5 0 -9 94 -9 210 l0 211 33 -18 c27 -15 58
-18 187 -18z m-4850 -210 l0 -135 -135 0 -135 0 0 135 0 135 135 0 135 0 0
-135z m2485 -934 c145 -59 192 -67 259 -47 l48 15 -6 -32 c-3 -18 -18 -42 -34
-54 l-27 -23 43 0 c56 0 102 20 134 58 l26 31 5 -26 c7 -38 -11 -92 -40 -119
-25 -23 -80 -47 -137 -59 l-30 -6 39 -22 c39 -22 45 -33 65 -114 15 -62 48
-96 93 -97 43 -1 46 -8 12 -41 -29 -30 -40 -31 -88 -6 -34 17 -37 17 -37 2 0
-9 7 -26 15 -37 8 -12 22 -66 31 -120 19 -115 30 -140 78 -182 41 -36 42 -38
20 -46 -20 -8 -62 15 -98 53 -37 38 -55 40 -30 4 28 -42 26 -167 -4 -255 -13
-38 -29 -68 -36 -68 -7 0 -28 22 -46 49 -31 45 -67 77 -76 68 -2 -2 12 -35 31
-73 19 -38 40 -93 45 -123 13 -69 13 -178 0 -186 -5 -3 -22 13 -37 35 -16 23
-38 53 -51 68 l-23 27 6 -45 c9 -70 47 -139 114 -210 38 -40 77 -95 101 -144
35 -68 40 -87 40 -146 0 -65 -28 -311 -36 -319 -9 -10 -45 35 -76 95 -18 35
-37 64 -42 64 -14 0 2 -87 25 -133 12 -23 39 -66 61 -95 29 -40 43 -71 54
-125 15 -70 12 -157 -5 -157 -5 0 -25 29 -46 65 -49 84 -72 88 -44 8 76 -220
77 -393 2 -563 l-19 -45 -33 140 c-40 172 -52 215 -61 215 -11 0 -56 -53 -109
-131 -28 -42 -62 -85 -74 -97 l-23 -22 -12 97 c-13 100 -49 266 -80 368 -23
73 -72 185 -82 185 -9 0 -223 -577 -241 -650 -21 -82 -18 -369 4 -435 20 -61
15 -70 -12 -17 -62 122 -101 275 -108 429 -9 172 18 276 88 341 29 27 30 32
24 76 -4 26 -16 57 -25 69 -21 25 -21 25 -39 -63 -7 -30 -18 -64 -26 -74 -13
-18 -17 -18 -41 -6 -76 41 -72 174 10 294 47 69 62 119 46 160 -14 37 -26 32
-54 -22 -27 -53 -50 -77 -65 -68 -25 16 -46 113 -45 206 1 147 52 278 166 426
26 35 48 68 48 74 0 18 -21 11 -59 -19 -86 -67 -101 -66 -101 7 0 185 108 341
255 367 57 11 61 16 27 32 -34 16 -49 43 -31 53 6 4 32 10 58 13 66 8 157 44
197 79 37 33 60 95 49 135 l-6 25 -27 -35 c-56 -74 -122 -108 -172 -87 -29 12
-41 30 -20 30 6 0 22 11 35 25 31 30 32 71 3 102 -19 20 -31 23 -104 23 -79 0
-85 2 -119 31 -47 41 -45 56 5 51 32 -3 57 4 116 33 122 61 195 49 282 -43 23
-25 46 -42 50 -38 15 16 5 94 -16 124 -24 33 -112 82 -147 82 -13 0 -26 10
-33 24 -19 42 -76 99 -117 117 -22 10 -61 19 -87 19 -46 0 -47 1 -74 49 -34
63 -78 88 -129 71 -37 -12 -85 -62 -85 -88 0 -12 -10 -6 -36 19 -41 42 -53 96
-34 154 22 66 131 168 161 149 6 -3 24 -35 39 -70 22 -49 35 -65 55 -70 14 -3
29 -4 32 0 3 3 -6 32 -21 65 -32 71 -32 85 -5 105 24 17 44 12 78 -18 23 -20
24 -20 35 -2 51 85 108 115 215 116 66 0 88 -5 196 -49z m-1512 -114 c54 -32
81 -69 107 -148 19 -55 21 -82 19 -199 -2 -74 0 -141 5 -149 13 -20 87 -51
124 -51 39 0 40 -13 8 -61 -24 -35 -78 -69 -108 -69 -8 0 -41 9 -73 20 -72 25
-86 25 -92 1 -2 -10 -25 -34 -49 -52 -60 -45 -84 -85 -84 -142 0 -35 6 -53 26
-77 33 -39 44 -109 20 -132 -23 -23 -22 -110 2 -131 33 -30 67 -29 197 2 162
40 183 39 262 -5 40 -22 74 -34 91 -32 24 3 27 7 30 49 3 53 -19 89 -76 118
-21 11 -50 33 -66 49 -26 29 -28 35 -24 94 5 67 32 148 72 213 22 35 25 38 31
20 15 -46 54 -123 79 -152 14 -17 73 -63 130 -102 115 -78 148 -112 183 -187
35 -77 40 -155 14 -238 -26 -85 -26 -148 -1 -204 20 -44 20 -44 0 -69 -11 -14
-32 -62 -47 -107 -23 -71 -27 -97 -27 -211 0 -140 10 -185 60 -256 23 -34 24
-40 13 -83 -16 -65 -7 -182 19 -231 11 -22 34 -53 50 -68 30 -28 30 -30 15
-65 -19 -46 -19 -198 1 -272 8 -30 12 -57 10 -59 -9 -10 -26 19 -73 128 -28
62 -63 134 -80 159 -93 145 -242 234 -415 249 -61 5 -74 3 -79 -10 -11 -29 14
-87 64 -149 28 -35 57 -79 66 -98 18 -42 29 -228 14 -249 -7 -12 -29 5 -103
80 -95 96 -111 125 -134 234 l-6 30 -63 -66 c-97 -103 -134 -196 -135 -344 -1
-56 -4 -74 -10 -60 -18 40 -90 227 -90 234 0 4 54 77 121 162 130 167 171 231
249 389 50 104 58 130 40 130 -12 0 -136 -154 -259 -325 -214 -295 -194 -271
-205 -244 -5 13 -27 61 -49 106 l-40 82 74 98 c41 54 95 139 121 188 63 124
121 261 116 277 -4 11 -56 -63 -271 -394 -42 -65 -83 -118 -90 -118 -7 0 -28
16 -47 35 -19 19 -40 35 -47 35 -6 0 -15 -17 -18 -37 -4 -21 -11 -54 -16 -73
-5 -19 -9 -55 -9 -80 0 -42 -5 -51 -69 -121 -70 -76 -208 -196 -216 -187 -3 3
-8 52 -11 110 l-7 105 122 138 c68 77 142 169 165 205 86 132 186 308 186 326
0 31 -59 -34 -283 -314 l-210 -263 -15 31 c-8 16 -32 50 -54 74 l-39 45 104
149 c57 82 122 184 144 228 37 72 113 245 113 258 0 37 -82 -73 -262 -352 -77
-120 -146 -223 -152 -230 -7 -7 -20 -10 -29 -6 -25 9 -22 66 13 252 32 171 36
212 20 212 -27 0 -79 -162 -105 -330 -10 -63 -19 -120 -20 -126 -2 -6 -23 -14
-48 -17 -60 -8 -97 -27 -97 -48 0 -10 20 -38 44 -62 55 -54 63 -90 48 -217
-24 -188 -14 -253 51 -338 14 -19 24 -39 21 -45 -2 -7 -25 -12 -50 -13 -29 -1
-55 -8 -74 -22 -16 -12 -31 -18 -34 -14 -4 6 -32 153 -50 263 -30 179 -23 643
14 906 11 79 20 164 20 190 0 43 -1 46 -14 28 -7 -11 -40 -83 -73 -160 -65
-152 -78 -183 -272 -655 -165 -402 -168 -410 -180 -410 -23 0 -41 60 -41 138
0 262 203 809 417 1124 101 148 100 145 86 159 -9 9 -52 -27 -185 -157 -182
-178 -268 -247 -362 -290 -61 -28 -154 -42 -180 -27 -18 10 -15 14 319 327
291 273 427 417 412 432 -3 3 -41 -15 -84 -40 -195 -112 -396 -163 -543 -136
-36 6 -71 15 -79 19 -9 6 26 29 105 71 349 186 589 351 675 465 36 48 65 112
54 123 -2 2 -50 -19 -107 -46 -120 -59 -254 -106 -352 -123 -81 -14 -216 -7
-265 13 l-34 14 109 63 c140 82 401 245 778 485 279 177 302 190 341 187 25
-1 59 5 81 15 l39 18 -90 6 c-49 4 -98 10 -108 15 -36 16 -47 72 -26 134 13
37 22 39 37 6 34 -73 169 -74 382 0 74 25 153 50 175 55 66 15 150 5 198 -23z
m3172 6 c39 -8 126 -38 195 -65 106 -43 136 -50 197 -52 40 0 73 -5 73 -9 0
-36 -53 -67 -112 -67 -43 0 -33 -32 12 -43 135 -34 223 -72 333 -144 71 -47
85 -73 41 -73 -23 0 -16 -11 73 -102 54 -57 194 -198 311 -315 184 -185 209
-213 185 -213 -33 0 -133 55 -228 125 -79 58 -268 219 -299 254 -21 23 -36 27
-36 10 0 -19 71 -101 247 -285 255 -267 373 -410 473 -575 42 -69 48 -85 34
-87 -38 -8 -275 98 -363 162 -62 46 -118 118 -252 328 -130 203 -171 256 -205
264 -14 4 -27 4 -30 2 -2 -3 92 -165 210 -361 311 -517 380 -670 417 -917 16
-112 6 -598 -15 -697 -19 -92 -53 -159 -72 -140 -10 9 -86 305 -164 632 -110
463 -183 706 -263 878 -45 96 -133 237 -147 237 -10 0 -6 -13 73 -220 100
-264 166 -479 206 -677 24 -115 54 -360 47 -378 -2 -6 -24 -17 -47 -24 -68
-20 -183 -78 -234 -116 -25 -19 -47 -35 -49 -35 -2 0 -6 80 -9 178 -3 111 -13
221 -26 297 -45 254 -136 555 -164 538 -11 -7 -4 -90 29 -318 35 -244 46 -336
41 -341 -2 -3 -29 26 -58 63 -171 218 -343 413 -365 413 -8 0 -14 -2 -14 -5 0
-24 140 -267 204 -354 43 -60 153 -172 210 -216 33 -25 36 -31 36 -80 0 -53
-16 -194 -26 -227 -12 -42 -34 -21 -292 287 -273 326 -341 399 -358 382 -7 -7
34 -96 101 -217 77 -138 148 -222 359 -423 l156 -149 -21 -36 c-45 -75 -101
-143 -114 -138 -7 2 -60 41 -118 86 l-105 81 -6 52 c-10 71 -28 97 -69 97 -17
0 -39 -4 -46 -9 -12 -7 -50 26 -160 140 -148 151 -191 181 -169 117 23 -69
105 -195 169 -259 l65 -65 -28 -45 c-15 -24 -37 -70 -49 -101 -12 -32 -24 -58
-26 -58 -3 0 -63 54 -134 120 -71 66 -133 120 -139 120 -17 0 -12 -28 15 -80
34 -67 73 -109 158 -171 40 -29 75 -55 80 -59 9 -7 -36 -143 -60 -179 -19 -30
-72 -79 -227 -209 -149 -126 -152 -127 -121 -55 65 146 151 248 265 312 75 43
84 63 45 109 -33 39 -72 47 -180 35 l-85 -9 0 32 c0 17 -11 91 -24 165 -14 74
-28 164 -33 201 l-8 67 -41 -18 c-22 -10 -65 -43 -96 -72 -53 -52 -55 -57 -62
-119 -12 -121 -26 -165 -76 -251 -28 -46 -56 -101 -62 -121 -24 -79 -40 -39
-47 118 -6 118 -7 122 -42 176 -59 88 -86 149 -103 231 -21 102 -20 121 9 165
47 71 54 185 19 286 -19 52 -18 181 2 313 32 213 7 319 -100 431 l-55 58 14
55 c8 29 15 66 15 81 0 51 7 58 45 42 79 -33 121 -7 161 98 15 40 39 82 52 93
88 72 94 80 99 126 4 34 0 57 -16 89 -11 24 -19 46 -16 48 10 10 116 -51 135
-78 29 -41 26 -102 -11 -189 -42 -100 -39 -104 69 -99 146 7 212 60 246 194
21 84 34 108 89 170 24 27 47 59 51 72 10 31 -16 70 -60 88 -32 14 -34 17 -34
66 l0 51 -74 -71 c-70 -68 -76 -72 -120 -72 -25 0 -75 10 -110 21 -62 20 -68
21 -113 6 -26 -9 -50 -14 -52 -11 -11 11 16 59 39 70 14 7 60 29 102 48 113
53 155 117 113 172 -33 44 -7 109 86 208 74 79 125 103 187 86 38 -10 46 -8
94 19 109 62 190 69 353 34z m-2582 -294 c12 -93 69 -114 282 -104 182 9 240
-3 294 -59 39 -40 37 -52 -3 -36 -44 16 -176 12 -291 -11 -73 -14 -134 -20
-190 -17 -71 3 -86 7 -118 31 -40 30 -67 74 -67 107 0 37 58 130 80 130 4 0
10 -18 13 -41z m778 -2202 c50 -166 61 -307 33 -424 -18 -74 -14 -277 5 -311
9 -15 10 -13 11 8 1 99 84 281 168 370 32 33 62 60 68 60 6 0 26 -53 45 -117
31 -107 34 -130 34 -243 0 -125 0 -125 -38 -198 -20 -40 -60 -109 -89 -154
-63 -98 -78 -153 -78 -278 l0 -95 40 117 c47 140 58 163 120 248 84 115 115
194 141 359 15 98 40 170 84 236 38 57 55 68 55 37 0 -9 11 -38 25 -64 63
-119 32 -264 -108 -501 -22 -37 -37 -70 -34 -74 10 -9 50 5 87 29 43 29 85 90
101 146 6 23 15 45 19 47 12 7 40 -83 40 -126 0 -41 -12 -57 -81 -112 -26 -20
-61 -59 -79 -87 -28 -44 -34 -63 -38 -127 -3 -48 -1 -74 5 -72 19 7 124 134
174 209 60 90 89 178 89 269 0 64 3 71 64 174 62 105 106 224 106 291 0 37 26
96 57 129 33 34 43 34 43 2 0 -14 10 -83 21 -152 25 -143 19 -207 -24 -295
-13 -26 -20 -48 -15 -48 5 0 29 14 54 31 72 49 124 69 187 69 31 0 57 -4 57
-10 0 -5 -8 -10 -19 -10 -27 0 -111 -47 -148 -82 -37 -36 -86 -126 -137 -251
-58 -147 -101 -209 -191 -279 -47 -37 -95 -100 -95 -123 0 -20 69 -3 140 34
83 42 161 108 245 204 37 42 101 97 165 142 129 89 197 160 243 251 38 77 87
206 87 232 0 31 47 119 86 162 33 37 39 40 45 23 16 -38 9 -203 -12 -298 -38
-177 -64 -232 -164 -343 -26 -29 -45 -55 -42 -58 3 -3 66 24 141 61 262 129
430 262 532 420 121 187 138 212 168 244 59 63 273 191 319 191 16 0 12 -9
-21 -47 -53 -64 -68 -97 -76 -163 -12 -89 -35 -159 -82 -249 -24 -46 -44 -85
-44 -87 0 -12 41 -1 85 23 39 20 58 24 81 19 l29 -8 -25 -16 c-14 -9 -50 -43
-80 -75 -237 -258 -302 -292 -670 -347 -235 -36 -309 -53 -419 -97 -100 -40
-181 -87 -321 -185 -208 -146 -289 -190 -420 -230 -68 -21 -100 -42 -100 -65
0 -7 9 -13 20 -13 10 0 42 -13 69 -30 100 -59 227 -78 331 -50 25 6 150 66
278 132 128 66 235 118 237 116 10 -10 -258 -289 -313 -325 -73 -49 -191 -93
-333 -125 -86 -19 -133 -23 -274 -23 -93 0 -199 4 -235 9 -80 10 -134 -3 -191
-47 -65 -49 -62 -57 21 -57 82 0 112 -13 182 -75 52 -47 134 -90 189 -100 54
-10 108 9 164 58 82 72 108 82 210 82 81 0 95 -3 142 -29 29 -16 62 -39 74
-52 l22 -24 -24 0 c-41 0 -83 -35 -162 -132 -115 -144 -179 -178 -329 -178
-98 0 -114 7 -305 126 -205 129 -263 145 -307 82 -38 -54 -15 -117 89 -243
116 -141 132 -211 66 -294 -91 -115 -223 -102 -358 36 -29 29 -58 63 -64 75
-10 19 -9 20 17 14 116 -25 140 -27 176 -17 72 22 75 80 9 190 -56 92 -81 153
-88 211 -3 28 -10 50 -14 50 -5 0 -56 -44 -115 -97 -232 -214 -382 -291 -508
-263 -67 15 -84 27 -256 195 -158 153 -280 252 -379 309 l-56 31 129 3 c233 5
397 -45 487 -148 109 -125 144 -158 186 -170 70 -21 121 4 226 113 112 117
167 194 147 207 -28 18 -146 60 -215 76 -103 25 -281 22 -365 -4 -35 -12 -66
-20 -68 -17 -8 7 142 155 186 184 64 40 154 65 210 57 93 -13 198 -79 270
-172 43 -54 57 -56 47 -7 -43 228 -340 367 -598 280 -42 -15 -136 -56 -208
-92 -159 -80 -230 -101 -291 -85 -121 33 -336 178 -470 318 -66 69 -138 170
-138 194 0 4 28 -11 63 -33 84 -55 206 -112 297 -140 57 -17 100 -23 180 -23
104 -1 106 -1 205 45 121 56 123 57 212 68 137 17 290 -12 493 -95 61 -24 117
-44 125 -44 15 0 -49 62 -121 117 -59 46 -170 99 -260 125 -160 45 -433 24
-610 -47 -107 -43 -175 -29 -311 63 -32 21 -75 45 -95 52 -36 13 -37 15 -21
32 28 31 125 85 182 102 68 20 149 20 221 1 30 -8 64 -15 75 -14 17 0 15 4
-12 28 -68 57 -114 72 -328 102 -319 45 -604 111 -840 193 -69 24 -129 47
-133 51 -11 11 45 53 86 64 58 17 154 10 237 -16 11 -3 -3 12 -30 34 -74 59
-140 136 -174 205 -36 72 -39 121 -15 259 18 108 7 183 -34 232 -14 15 -13 17
9 17 38 0 101 -20 133 -43 41 -29 73 -108 85 -207 5 -47 15 -128 21 -180 13
-110 43 -186 92 -230 41 -38 50 -38 36 1 -16 46 -5 131 21 167 12 18 26 32 30
32 4 0 17 -21 29 -47 36 -79 138 -171 231 -209 47 -18 63 -15 86 19 14 22 13
28 -15 91 -55 120 -72 218 -68 391 2 85 6 157 11 161 21 21 98 -136 132 -271
50 -192 67 -231 169 -375 70 -100 116 -151 128 -144 13 8 9 136 -8 242 -17
106 -13 163 16 229 18 40 69 113 80 113 3 0 13 -20 23 -44 19 -45 65 -98 131
-151 48 -38 60 -91 51 -236 -7 -118 1 -149 52 -206 35 -39 206 -156 293 -202
134 -70 324 -187 378 -234 31 -27 76 -74 101 -104 40 -47 46 -51 49 -32 6 38
-29 109 -79 159 -27 27 -127 101 -223 165 -263 175 -365 281 -415 431 -18 55
-20 87 -21 290 0 224 0 229 -25 280 -14 29 -46 71 -72 94 l-46 43 44 -7 c136
-21 281 -150 390 -348 58 -105 114 -243 139 -345 30 -119 47 -150 146 -258 46
-51 106 -123 134 -160 27 -36 50 -62 50 -58 0 4 -12 46 -25 93 -55 186 -70
291 -70 500 0 211 11 292 62 440 25 72 85 202 105 227 16 20 26 6 49 -70z
m-1787 -561 c31 -94 22 -98 -54 -19 -38 39 -78 90 -90 113 -20 38 -20 41 -3
63 9 12 40 42 67 66 l51 45 7 -110 c3 -60 14 -131 22 -158z m3779 15 c42 -36
76 -69 74 -75 -2 -5 -29 -32 -60 -59 l-57 -50 -40 18 c-61 27 -63 32 -50 127
7 46 14 94 16 106 5 27 -5 33 117 -67z m-123 -209 c13 -10 20 -24 17 -29 -8
-13 -97 -73 -108 -73 -4 0 5 27 19 60 15 33 32 60 38 60 7 0 22 -8 34 -18z
m677 -149 c-19 -118 -123 -356 -203 -466 -38 -52 -51 -55 -72 -16 -15 28 -10
216 8 289 10 42 15 47 75 78 35 19 92 60 127 92 35 33 65 59 67 60 2 0 1 -17
-2 -37z m-4950 -20 l91 -37 16 -56 c23 -82 21 -233 -4 -287 -32 -73 -49 -58
-115 101 -37 89 -88 241 -101 299 -5 23 -3 29 7 24 8 -4 55 -23 106 -44z"/>
<path d="M8584 12866 c-107 -47 -172 -190 -130 -289 27 -64 100 -116 187 -131
30 -5 44 0 92 31 31 21 57 43 57 49 0 8 -25 11 -73 10 -76 -1 -109 14 -145 66
-14 20 -10 25 71 106 48 46 87 87 87 91 -1 10 -34 46 -60 64 -29 20 -45 21
-86 3z m37 -77 l32 -30 -48 -49 c-29 -29 -53 -46 -58 -41 -15 15 -11 98 7 125
21 33 27 33 67 -5z"/>
<path d="M8963 12825 c-44 -19 -120 -90 -127 -120 -8 -32 8 -70 41 -101 l28
-26 -60 -54 c-67 -61 -67 -59 20 -96 75 -32 166 -16 252 44 89 60 89 133 0
188 l-28 17 51 39 c28 21 49 43 47 49 -2 5 -25 25 -51 43 -54 36 -116 42 -173
17z m62 -82 c22 -14 42 -28 44 -29 11 -9 -48 -43 -73 -44 -51 0 -113 78 -73
93 29 12 65 5 102 -20z m14 -172 c52 -27 65 -45 51 -70 -25 -47 -81 -51 -146
-10 -19 11 -34 26 -34 32 1 13 67 67 82 67 5 0 26 -9 47 -19z"/>
<path d="M8287 12802 l-38 -25 -48 23 -49 23 -41 -34 c-22 -19 -41 -37 -41
-40 0 -3 15 -12 33 -20 l32 -14 5 -145 5 -145 43 -3 42 -3 0 150 c0 132 2 151
18 160 13 8 24 3 49 -22 l33 -31 42 30 c43 30 59 54 37 54 -7 0 -29 15 -49 34
l-35 34 -38 -26z"/>
<path d="M7954 12783 c-10 -15 -17 -16 -81 -4 -39 8 -90 11 -114 8 -56 -7
-117 -53 -157 -118 -31 -50 -33 -59 -29 -121 5 -83 27 -122 90 -161 62 -38
115 -44 208 -22 l74 16 20 -25 c12 -14 26 -26 33 -26 16 0 15 5 -3 41 -13 23
-16 69 -15 229 0 110 -4 200 -8 200 -4 0 -12 -8 -18 -17z m-91 -47 c48 -20 71
-52 82 -114 21 -114 -12 -194 -92 -228 -91 -39 -184 57 -183 188 1 75 77 168
137 168 13 0 38 -6 56 -14z"/>
<path d="M9254 12629 c-9 -16 6 -26 47 -34 44 -8 58 7 27 29 -26 18 -64 21
-74 5z"/>
<path d="M9252 12558 c6 -17 62 -32 85 -24 17 7 17 8 -1 22 -25 18 -89 19 -84
2z"/>
<path d="M8794 12356 c-5 -13 -23 -16 -83 -16 -86 0 -136 -22 -171 -76 -49
-73 -15 -121 116 -169 99 -35 124 -56 124 -106 0 -22 -7 -42 -17 -50 -22 -19
-130 -17 -169 4 -30 16 -64 69 -64 101 0 9 -7 16 -16 16 -15 0 -16 -11 -11
-90 3 -49 9 -95 12 -100 4 -7 16 -1 31 15 18 19 29 24 49 19 14 -3 56 -7 94
-8 61 -1 72 2 96 24 37 34 55 79 55 140 0 75 -32 106 -130 125 -127 26 -153
51 -100 97 48 44 130 31 184 -27 31 -34 40 -19 31 51 -7 55 -21 77 -31 50z"/>
<path d="M8322 12285 c-24 -36 -60 -74 -79 -86 l-35 -22 26 -21 c24 -20 25
-27 28 -138 3 -114 4 -118 32 -147 40 -42 67 -40 105 8 17 21 31 42 31 45 0 3
-13 6 -30 6 -40 0 -51 25 -58 126 l-5 82 49 7 c27 3 56 7 64 8 8 1 16 11 18
21 4 17 -1 18 -52 12 l-55 -6 -6 34 c-6 30 1 72 20 119 16 38 -12 13 -53 -48z"/>
<path d="M9212 12327 c-27 -28 -28 -68 -4 -90 24 -22 45 -21 65 1 24 26 21 65
-6 90 -29 27 -29 27 -55 -1z"/>
<path d="M7704 12246 c-71 -40 -105 -70 -129 -111 -55 -95 -56 -190 -2 -252
37 -42 98 -72 144 -73 26 0 37 7 61 44 l30 44 -49 4 c-100 10 -166 85 -157
179 10 99 62 127 123 66 l34 -34 35 35 34 35 -31 43 c-18 24 -36 43 -42 43 -5
1 -28 -10 -51 -23z"/>
<path d="M8010 12229 c-40 -16 -89 -58 -106 -91 -17 -32 -13 -100 6 -124 7 -7
0 -23 -20 -49 -39 -49 -39 -84 1 -130 17 -19 35 -35 40 -35 5 0 28 14 51 30
52 38 64 38 72 0 10 -51 32 -48 89 9 39 40 47 52 32 51 -45 -5 -45 -5 -45 126
0 123 -1 126 -30 168 -23 35 -52 60 -63 55 -1 0 -13 -5 -27 -10z m8 -89 c15
-20 22 -44 22 -73 0 -40 -3 -46 -29 -57 -74 -30 -125 74 -65 134 34 33 45 33
72 -4z m32 -195 c0 -38 -4 -47 -22 -54 -24 -9 -82 19 -92 44 -10 28 5 46 33
41 14 -3 33 -2 41 4 30 20 40 11 40 -35z"/>
<path d="M8982 12180 c-79 -65 -106 -114 -100 -186 6 -65 43 -118 102 -145 22
-10 46 -19 52 -19 14 0 84 107 84 128 0 12 -5 11 -24 -7 l-24 -23 -46 21 c-37
16 -51 29 -66 63 -40 89 -16 128 80 128 48 0 61 4 70 19 5 11 10 22 10 24 0 4
-67 47 -73 47 -1 0 -30 -23 -65 -50z"/>
<path d="M9203 12124 c-52 -45 -69 -72 -37 -60 9 4 27 -1 40 -9 23 -15 24 -21
24 -118 0 -104 4 -117 43 -147 16 -12 23 -8 62 30 l45 44 -33 11 -32 10 -3
114 c-2 96 -6 118 -23 142 -11 16 -23 29 -27 29 -4 0 -31 -21 -59 -46z"/>
<path d="M8711 11763 c-18 -18 -32 -35 -30 -36 2 -2 19 -15 38 -30 l33 -28 34
38 c36 42 41 53 21 53 -8 0 -22 9 -32 20 -22 25 -22 25 -64 -17z"/>
<path d="M8502 11718 c-10 -24 -35 -64 -55 -91 -40 -51 -45 -68 -23 -86 10 -9
15 -42 18 -116 3 -93 5 -106 27 -129 40 -43 69 -34 118 34 23 33 38 62 34 65
-5 2 -14 -2 -21 -10 -7 -8 -21 -15 -31 -15 -31 0 -49 39 -49 107 l0 63 34 0
c36 0 70 26 45 34 -8 3 -27 6 -44 8 l-30 3 3 88 c2 48 1 87 -2 87 -3 0 -14
-19 -24 -42z"/>
<path d="M7763 11651 c-65 -42 -103 -85 -128 -144 -30 -71 -13 -170 38 -225
30 -32 102 -82 119 -82 13 1 98 122 98 142 0 6 -12 3 -26 -7 -18 -12 -38 -15
-61 -12 -36 6 -83 32 -83 45 0 5 45 45 99 91 l100 82 -40 56 c-21 31 -39 62
-39 69 0 26 -19 23 -77 -15z m29 -104 l35 -53 -64 -48 c-35 -27 -65 -47 -67
-45 -15 17 -26 53 -26 83 0 27 9 46 36 76 20 22 40 40 44 40 4 0 23 -24 42
-53z"/>
<path d="M9105 11664 c-16 -8 -47 -32 -67 -52 -40 -38 -48 -74 -29 -126 8 -19
6 -30 -10 -50 -11 -14 -24 -40 -29 -58 -13 -43 6 -115 35 -134 21 -14 26 -13
67 15 69 46 89 48 143 11 l46 -32 38 34 c53 45 59 61 23 53 -44 -9 -52 10 -59
141 l-6 117 -47 49 c-51 52 -60 55 -105 32z m7 -89 c54 -37 66 -125 16 -125
-32 0 -85 38 -92 65 -6 25 17 85 32 85 4 0 24 -11 44 -25z m14 -155 c21 0 24
-5 24 -40 0 -43 -7 -49 -54 -53 -38 -3 -71 40 -62 78 6 24 10 27 38 21 17 -3
41 -6 54 -6z"/>
<path d="M8013 11619 c-24 -22 -43 -43 -43 -46 0 -4 10 -17 23 -31 20 -22 22
-34 25 -168 l3 -144 40 0 39 0 0 149 c0 145 1 149 23 164 22 14 26 14 52 -7
l28 -23 -6 -126 c-6 -118 1 -177 22 -177 3 0 33 21 66 48 56 44 58 47 34 50
-24 3 -27 8 -33 64 -3 34 -6 86 -6 117 0 73 -16 127 -42 145 -19 14 -25 12
-71 -24 -28 -21 -55 -36 -59 -34 -5 3 -17 23 -28 45 -11 21 -21 39 -23 39 -1
0 -21 -19 -44 -41z"/>
<path d="M8731 11609 c-56 -46 -73 -77 -36 -62 9 3 29 0 45 -7 l30 -12 0 -102
c0 -100 1 -103 30 -131 33 -31 42 -28 82 27 l20 29 -21 15 c-19 14 -21 25 -21
106 0 85 -2 95 -31 140 -17 26 -32 48 -34 48 -2 0 -31 -23 -64 -51z"/>
<path d="M10542 12987 c-27 -29 -29 -78 -4 -100 58 -53 116 48 59 101 -29 27
-29 27 -55 -1z"/>
<path d="M10243 12933 c-31 -6 -29 -21 2 -29 29 -7 45 -31 45 -69 0 -30 -56
-205 -70 -219 -6 -6 -25 23 -49 75 -58 126 -58 125 -17 150 63 37 55 39 -167
60 -70 6 -130 9 -133 6 -13 -13 9 -27 42 -27 24 0 43 -8 60 -26 30 -29 147
-271 189 -387 28 -78 29 -79 42 -53 8 15 44 118 82 231 37 112 75 215 84 228
8 13 29 30 46 37 17 7 31 16 31 21 0 9 -144 10 -187 2z"/>
<path d="M10915 12880 c-19 -37 -108 -126 -135 -135 -27 -9 -25 -23 4 -36 22
-10 25 -20 31 -98 14 -172 36 -250 77 -272 24 -13 41 0 79 61 29 47 29 65 0
55 -34 -10 -45 21 -49 139 l-4 113 72 7 c95 9 120 15 120 32 0 11 -18 14 -77
14 -43 0 -84 4 -92 9 -14 9 -12 71 4 119 11 33 -12 28 -30 -8z"/>
<path d="M10455 12764 c-47 -43 -55 -54 -36 -50 15 3 40 -3 63 -16 l38 -22 0
-112 c0 -112 0 -114 31 -149 45 -51 84 -48 126 9 32 43 33 56 5 56 -7 0 -27 9
-43 21 l-29 20 0 118 0 117 -33 32 c-18 18 -39 32 -47 32 -8 0 -42 -25 -75
-56z"/>
<path d="M11281 12713 c-31 -6 -121 -97 -121 -122 0 -12 8 -26 19 -32 17 -12
17 -14 -10 -67 -16 -30 -29 -66 -29 -81 0 -32 47 -130 65 -137 7 -3 28 6 48
19 52 35 100 53 105 39 2 -6 13 -23 24 -37 l21 -27 43 43 c24 24 44 47 44 52
0 5 -14 22 -31 38 l-32 30 6 113 5 114 -26 19 c-26 19 -88 45 -101 42 -3 -1
-17 -4 -30 -6z m22 -83 c46 -29 47 -31 47 -80 0 -27 -2 -50 -6 -50 -27 0 -154
74 -154 90 0 11 50 70 59 70 4 0 28 -13 54 -30z m47 -211 c0 -55 -1 -57 -30
-63 -17 -3 -33 -6 -38 -8 -18 -5 -52 67 -52 112 0 26 2 49 6 52 3 3 30 -4 60
-16 l54 -21 0 -56z"/>
<path d="M10242 12288 c-7 -7 -38 -10 -77 -9 -128 4 -237 -33 -307 -106 -67
-69 -82 -134 -53 -231 13 -41 25 -59 56 -82 72 -52 116 -63 226 -57 54 3 110
9 126 12 21 6 27 4 27 -9 0 -9 6 -16 14 -16 12 0 14 43 15 255 0 140 -3 255
-8 255 -4 0 -12 -5 -19 -12z m-78 -78 c43 -20 63 -45 77 -92 10 -37 -1 -43
-133 -62 -133 -20 -173 -20 -192 0 -19 18 -19 24 -5 61 35 93 159 139 253 93z
m-48 -214 c61 -7 116 -16 122 -20 18 -11 -5 -69 -43 -103 -30 -29 -41 -33 -90
-33 -36 0 -70 7 -96 20 -45 24 -99 92 -99 127 0 21 4 23 48 23 26 -1 97 -7
158 -14z"/>
<path d="M10611 12220 l-43 -40 -19 24 c-10 13 -31 29 -47 35 -27 11 -34 9
-105 -41 -42 -29 -76 -59 -76 -65 -1 -17 1 -17 55 9 l46 23 32 -36 c19 -20 36
-52 40 -73 10 -55 -11 -139 -49 -196 -19 -28 -31 -49 -27 -47 47 22 65 36 93
76 18 25 34 48 35 49 1 2 19 -15 40 -38 62 -68 69 -69 125 -14 27 27 49 53 49
59 -1 5 -24 21 -51 34 -90 42 -137 106 -118 159 8 20 10 20 36 7 43 -23 115
-19 142 6 l23 21 -49 28 c-27 16 -55 35 -62 44 -18 22 -20 21 -70 -24z"/>
<path d="M10955 12142 c-80 -55 -111 -96 -120 -156 -9 -58 8 -114 52 -170 75
-96 120 -99 209 -14 69 66 80 85 37 62 -89 -46 -211 22 -221 124 -4 44 -1 53
25 82 l29 32 38 -26 c21 -14 46 -26 56 -26 23 0 80 20 80 29 0 7 -103 111
-110 111 -3 0 -36 -22 -75 -48z"/>
<path d="M11364 12135 c-90 -38 -164 -147 -164 -241 0 -94 79 -204 147 -204
39 0 138 87 164 145 35 79 37 144 5 207 -42 84 -97 117 -152 93z m23 -104 c38
-28 73 -82 73 -115 0 -37 -23 -118 -39 -138 l-18 -22 -53 50 c-85 79 -105 163
-54 223 32 38 41 38 91 2z"/>
<path d="M11590 11956 c0 -15 30 -26 73 -26 30 0 38 24 11 34 -30 12 -84 7
-84 -8z"/>
<path d="M11596 11903 c-17 -18 -2 -32 39 -39 51 -7 66 0 44 20 -16 15 -73 28
-83 19z"/>
<path d="M9825 11750 c-2 -3 -1 -115 2 -249 l6 -244 30 -33 c27 -31 57 -45 57
-26 0 4 21 31 46 60 l46 52 -29 -2 c-53 -4 -53 -3 -53 227 l0 213 -51 4 c-28
1 -52 1 -54 -2z"/>
<path d="M10597 11711 c-9 -16 -41 -46 -70 -67 -28 -21 -54 -40 -57 -42 -3 -2
7 -13 23 -24 l27 -20 0 -135 0 -135 29 -29 c42 -42 75 -39 123 13 21 23 38 45
38 50 0 5 -15 6 -32 3 -53 -9 -59 1 -65 123 l-6 111 44 3 c56 4 60 28 7 41
-36 8 -38 11 -38 47 0 21 4 50 10 64 14 37 -11 34 -33 -3z"/>
<path d="M10235 11661 c-11 -5 -44 -34 -72 -64 -55 -58 -62 -81 -43 -133 8
-20 7 -31 -4 -43 -48 -55 -59 -125 -30 -186 20 -42 34 -44 76 -6 18 16 48 37
66 48 l33 20 29 -28 c16 -16 33 -29 38 -29 10 0 112 113 112 124 0 4 -11 4
-25 0 -18 -4 -32 -1 -45 11 -17 16 -20 32 -20 119 -1 108 -6 121 -60 159 -27
19 -27 19 -55 8z m9 -107 c11 -10 16 -34 16 -70 0 -48 -2 -54 -21 -54 -67 0
-112 55 -90 112 19 49 54 54 95 12z m14 -180 c-4 -46 -54 -82 -83 -60 -17 12
-24 63 -11 84 3 5 26 9 51 10 l46 0 -3 -34z"/>
<path d="M10790 11564 c-47 -42 -49 -50 -15 -58 33 -8 45 -55 38 -154 l-6 -79
36 -39 35 -39 78 32 78 32 29 -34 c34 -41 47 -43 84 -11 25 21 26 25 13 41
-11 14 -15 48 -15 141 l0 124 -42 42 -43 42 -45 -44 -45 -45 37 -10 38 -11 0
-94 0 -94 -30 -9 c-20 -5 -44 -4 -70 5 l-40 13 -1 100 c-1 55 -2 105 -3 112
-1 15 -50 73 -62 73 -5 0 -27 -16 -49 -36z"/>
<path d="M11278 11501 l-57 -46 36 -12 c62 -22 62 -22 65 -177 3 -140 3 -141
27 -144 12 -2 34 -1 47 2 24 6 24 7 24 150 0 125 2 145 17 150 11 5 28 -5 53
-29 20 -19 39 -35 44 -35 15 0 96 74 96 88 0 8 -6 12 -13 9 -8 -3 -33 10 -57
29 -23 19 -45 34 -47 34 -2 0 -21 -11 -41 -25 -20 -14 -41 -25 -46 -25 -6 0
-28 18 -51 39 l-40 39 -57 -47z"/>
<path d="M9488 10394 c-73 -38 -55 -85 19 -50 34 16 34 16 27 -6 -10 -30 -7
-68 7 -85 17 -20 6 -25 -30 -12 -44 15 -49 6 -11 -21 64 -46 133 -38 253 31
38 22 80 42 93 45 26 7 33 24 9 24 -9 0 -60 23 -115 50 -119 60 -174 65 -252
24z m238 -60 c24 -14 44 -28 44 -30 0 -4 -96 -54 -104 -54 -3 0 0 12 6 26 9
19 9 33 1 55 -14 36 -5 37 53 3z"/>
<path d="M4615 15184 c-93 -90 -116 -117 -107 -126 10 -10 16 -10 30 0 9 6 29
19 44 27 47 26 39 41 234 -459 58 -147 104 -272 102 -277 -2 -5 -140 51 -308
125 -321 140 -430 191 -430 204 0 4 11 24 25 44 28 42 31 54 12 61 -13 5 -267
-237 -267 -254 0 -20 25 -19 53 1 57 43 78 36 527 -160 228 -100 434 -192 457
-206 91 -53 96 -32 30 124 -116 270 -302 787 -313 867 -5 32 -1 47 20 78 27
40 31 53 18 61 -4 2 -61 -47 -127 -110z"/>
<path d="M15024 14356 c-91 -18 -187 -69 -263 -142 -138 -129 -190 -306 -146
-493 32 -135 143 -303 272 -413 88 -74 89 -75 185 -45 101 32 128 48 110 70
-10 12 -21 13 -55 5 -58 -13 -142 -2 -204 28 -64 31 -141 113 -177 189 -105
222 -24 458 211 615 199 133 409 118 564 -41 80 -81 124 -173 124 -259 0 -55
-5 -74 -33 -124 -30 -52 -36 -86 -15 -86 4 0 46 35 92 78 l84 78 -45 91 c-128
257 -292 405 -496 449 -79 16 -125 16 -208 0z"/>
<path d="M3585 14054 c-60 -81 -114 -153 -120 -161 -7 -10 -6 -16 5 -23 11 -7
24 0 50 25 65 64 62 66 467 -243 173 -131 290 -227 300 -245 13 -27 13 -32
-10 -78 -20 -41 -22 -51 -10 -61 16 -13 13 -16 83 82 29 41 80 108 112 147 32
40 58 77 58 82 0 25 -24 19 -60 -13 -69 -62 -48 -72 -440 223 -358 269 -364
275 -319 348 19 31 20 63 2 63 -4 0 -57 -66 -118 -146z"/>
<path d="M3173 13458 c-17 -35 -54 -103 -82 -152 -47 -82 -57 -116 -33 -116 5
0 27 21 47 46 36 43 40 46 77 41 64 -9 613 -290 609 -312 -1 -11 -43 -23 -351
-96 -379 -91 -567 -129 -629 -129 -23 0 -32 -9 -58 -62 -18 -35 -45 -84 -60
-110 -22 -37 -25 -50 -15 -60 9 -9 19 -3 47 29 46 54 82 69 132 52 52 -17 595
-312 667 -362 l58 -41 -6 -46 c-12 -76 -11 -83 1 -87 7 -3 30 30 54 79 23 46
59 113 81 150 36 62 44 98 20 98 -5 0 -22 -18 -37 -41 -37 -53 -53 -61 -101
-48 -66 18 -587 289 -623 324 -18 18 -21 17 134 49 66 14 219 48 340 76 414
96 569 130 592 130 16 0 23 6 23 20 0 15 -22 31 -87 64 -147 74 -640 343 -685
374 -24 16 -52 39 -62 51 -19 20 -19 24 -4 70 11 36 13 52 5 60 -18 18 -21 14
-54 -51z"/>
<path d="M16054 13383 c19 -87 19 -93 -4 -118 -38 -41 -727 -375 -773 -375
-20 0 -38 11 -62 37 -27 29 -37 35 -46 26 -10 -10 3 -44 59 -155 39 -79 76
-156 82 -171 7 -19 16 -27 28 -25 18 4 18 5 0 73 -18 68 -3 82 194 179 138 67
176 82 187 73 17 -14 251 -493 251 -514 0 -15 -309 -169 -361 -180 -26 -5 -35
0 -69 37 -25 27 -45 40 -54 37 -12 -5 2 -41 69 -179 96 -198 124 -223 100 -92
-6 36 -4 44 16 64 13 12 130 74 259 137 547 268 528 262 577 196 15 -21 28
-40 30 -42 1 -2 9 2 18 9 13 11 8 25 -38 114 -29 55 -67 132 -83 169 -19 46
-33 67 -44 64 -15 -3 -16 -10 -4 -80 5 -29 2 -43 -11 -58 -24 -26 -323 -172
-336 -163 -15 9 -249 494 -249 516 0 15 33 35 146 90 200 95 214 96 265 19 10
-16 21 -22 32 -18 13 5 3 33 -68 179 -54 113 -89 174 -100 176 -15 3 -17 -1
-11 -25z"/>
<path d="M2475 11973 c-10 -43 -30 -117 -45 -165 -23 -72 -25 -90 -14 -99 10
-8 18 0 39 40 29 58 49 67 128 57 121 -16 449 -107 542 -151 157 -75 221 -188
190 -336 -37 -178 -147 -259 -330 -246 -76 6 -504 115 -589 151 -50 21 -66 49
-59 108 5 44 4 50 -11 47 -14 -3 -25 -31 -46 -114 -16 -60 -38 -139 -49 -175
-11 -36 -21 -73 -21 -82 0 -34 29 -18 49 26 10 24 29 49 41 56 27 14 56 8 334
-69 188 -53 260 -70 361 -85 43 -6 141 12 184 34 81 42 144 127 180 243 71
232 6 400 -194 497 -33 16 -162 59 -286 94 -271 78 -307 91 -338 124 -20 22
-22 32 -17 74 6 42 5 48 -12 48 -15 0 -22 -15 -37 -77z"/>
<path d="M16698 11954 c-3 -3 -4 -31 -1 -63 5 -53 3 -60 -18 -75 -22 -15 -120
-48 -314 -105 -38 -11 -145 -43 -238 -70 -92 -28 -194 -56 -227 -63 -69 -14
-85 -6 -115 62 -19 42 -22 45 -43 32 -9 -7 -8 -21 8 -68 12 -32 36 -114 55
-181 38 -140 40 -144 61 -136 11 4 13 15 8 48 -13 88 4 100 226 165 80 23 217
64 305 90 329 98 343 99 375 27 23 -53 30 -59 45 -47 9 8 0 48 -36 166 -27 86
-51 171 -55 190 -6 31 -22 43 -36 28z"/>
<path d="M16445 11124 c-124 -19 -222 -68 -305 -153 -116 -118 -155 -232 -148
-431 5 -137 29 -244 76 -339 31 -64 60 -78 179 -88 70 -6 73 -5 73 16 0 11 -6
21 -12 21 -29 0 -136 60 -170 96 -142 149 -125 430 35 582 85 79 183 122 326
142 258 35 455 -97 507 -338 18 -85 18 -137 0 -196 -22 -74 -60 -122 -121
-157 -51 -28 -67 -50 -47 -63 4 -2 57 8 117 23 l110 27 -1 185 c0 178 -1 187
-31 271 -17 48 -46 113 -64 143 -68 112 -184 206 -297 239 -57 16 -178 27
-227 20z"/>
<path d="M2897 9943 c-14 -13 -6 -23 31 -42 63 -33 120 -89 132 -129 16 -58
13 -276 -5 -318 -23 -56 -56 -64 -259 -64 -149 0 -175 2 -180 16 -15 39 -1
272 17 274 33 5 112 41 112 51 0 11 -30 14 -160 14 -132 0 -160 -2 -160 -14 0
-9 19 -20 49 -27 78 -20 80 -24 80 -176 l1 -133 -205 0 -205 0 -3 120 c-5 195
16 249 111 286 28 11 42 23 42 35 0 15 -8 17 -60 15 -33 -2 -78 -6 -100 -10
l-40 -6 -3 -348 c-2 -342 -2 -347 18 -347 15 0 20 7 20 25 0 44 26 82 61 89
17 3 207 6 421 6 481 0 457 6 470 -120 2 -16 9 -25 21 -25 16 0 17 24 18 384
1 345 -1 385 -16 393 -29 17 -158 58 -180 58 -12 0 -25 -3 -28 -7z"/>
<path d="M16105 9868 c-2 -7 -6 -82 -10 -166 -6 -144 -5 -153 12 -150 11 2 20
15 23 38 7 42 17 60 33 60 24 0 292 -103 310 -120 16 -15 17 -29 9 -169 -6
-105 -13 -156 -22 -161 -7 -4 -83 -27 -168 -50 -147 -39 -157 -41 -169 -24 -7
10 -13 35 -13 56 0 30 -4 38 -19 38 -17 0 -19 -13 -25 -157 -4 -87 -10 -173
-13 -190 -4 -29 -2 -33 16 -33 17 0 22 8 28 43 4 27 16 51 34 68 31 29 35 30
619 196 206 59 377 109 380 111 2 1 -1 11 -8 20 -7 9 -20 32 -29 50 -10 19
-24 32 -36 32 -19 0 -373 151 -694 296 -92 41 -179 86 -192 99 -17 16 -25 38
-29 74 -3 35 -9 51 -19 51 -7 0 -15 -6 -18 -12z m630 -441 c219 -92 210 -88
195 -97 -26 -14 -344 -100 -369 -100 l-24 0 7 127 c4 70 9 130 12 135 5 8 3 9
179 -65z"/>
<path d="M3110 8766 c0 -89 13 -83 -365 -157 -443 -86 -459 -89 -485 -89 -38
0 -68 26 -81 70 -11 38 -31 51 -43 31 -3 -5 3 -49 14 -97 11 -49 28 -132 37
-184 13 -70 22 -95 33 -95 11 0 16 15 20 54 4 43 10 58 30 73 27 20 330 84
354 75 15 -6 27 -58 81 -341 20 -104 35 -200 33 -215 -3 -24 -9 -27 -88 -43
-285 -57 -301 -56 -329 20 -10 28 -20 42 -31 40 -19 -4 -18 -15 13 -173 14
-71 29 -149 32 -173 5 -33 11 -42 23 -40 13 3 17 15 17 57 1 88 -12 83 470
177 160 31 318 59 352 61 71 6 86 -1 108 -54 10 -23 21 -33 35 -33 16 0 20 5
16 18 -13 42 -46 204 -56 280 -10 69 -15 82 -31 82 -16 0 -19 -8 -19 -51 0
-92 -4 -95 -255 -144 -128 -26 -163 -30 -173 -20 -8 7 -20 43 -27 81 -91 464
-95 488 -72 497 45 16 368 69 391 63 20 -5 33 -19 47 -51 22 -50 30 -57 47
-46 10 6 9 23 -4 77 -14 63 -54 278 -54 297 0 4 -9 7 -20 7 -18 0 -20 -7 -20
-54z"/>
<path d="M16270 8577 c-254 -86 -400 -355 -400 -734 0 -105 0 -105 23 -97 36
12 106 7 191 -15 96 -25 116 -41 116 -93 0 -30 4 -38 19 -38 14 0 20 10 25 43
4 23 22 109 41 191 33 140 35 179 7 162 -5 -3 -19 -33 -31 -66 -33 -89 -46
-95 -166 -70 -106 23 -149 40 -159 65 -11 31 -6 131 10 186 65 218 217 329
453 329 292 0 493 -148 517 -379 14 -126 -37 -284 -114 -353 -38 -34 -119 -68
-164 -68 -18 0 -36 -25 -26 -36 3 -2 45 -9 94 -14 49 -6 99 -12 110 -15 18 -4
25 2 37 33 9 20 29 69 45 107 89 216 87 464 -6 625 -118 205 -400 313 -622
237z"/>
<path d="M15860 7239 c-211 -57 -375 -248 -411 -479 -41 -266 141 -524 422
-596 47 -12 91 -15 166 -12 94 4 109 8 180 43 224 110 359 401 298 640 -50
195 -203 348 -401 400 -64 16 -199 19 -254 4z m199 -155 c178 -44 344 -167
390 -288 30 -80 29 -191 -3 -268 -64 -155 -188 -233 -371 -232 -202 2 -421
106 -513 244 -50 75 -66 133 -60 220 11 149 116 280 261 325 59 19 217 18 296
-1z"/>
<path d="M3540 7173 c0 -10 5 -35 11 -56 12 -45 -3 -77 -49 -101 -79 -40 -785
-317 -792 -309 -22 24 -83 203 -88 258 l-4 62 46 39 c50 42 61 70 24 61 -13
-2 -67 -17 -120 -33 -97 -28 -120 -46 -74 -58 14 -3 30 -20 40 -39 42 -89 286
-709 286 -727 0 -11 -6 -29 -12 -40 -21 -33 0 -39 87 -24 44 7 97 13 118 13
30 1 37 5 37 21 0 14 -9 21 -37 25 -82 13 -124 36 -153 81 -35 55 -92 199 -88
220 3 17 735 317 804 330 41 8 65 -10 95 -68 22 -42 30 -50 47 -39 9 6 1 36
-34 117 -26 60 -61 147 -78 194 -21 56 -38 86 -49 88 -11 2 -17 -3 -17 -15z"/>
<path d="M8962 3345 c-144 -32 -233 -139 -233 -279 0 -82 29 -145 97 -211 l52
-51 -41 -23 c-73 -42 -112 -78 -142 -133 -24 -44 -29 -65 -29 -123 -1 -113 45
-178 164 -234 50 -24 66 -26 185 -26 117 0 135 2 175 23 105 55 156 137 154
252 -1 85 -27 144 -100 220 -32 33 -55 62 -53 63 2 2 25 15 51 30 61 35 125
109 139 161 17 61 6 148 -26 202 -61 104 -240 163 -393 129z m176 -100 c43
-36 55 -74 50 -158 -4 -55 -12 -86 -33 -125 -42 -77 -45 -78 -102 -33 -94 76
-132 168 -103 255 27 82 125 114 188 61z m-82 -588 c43 -51 64 -106 64 -170 0
-99 -39 -147 -121 -147 -87 0 -137 78 -126 196 7 72 25 114 70 161 l30 32 28
-20 c15 -10 40 -34 55 -52z"/>
<path d="M7867 3223 c-20 -19 -4 -43 40 -63 58 -25 63 -33 63 -93 0 -65 -96
-456 -120 -487 -17 -23 -26 -25 -92 -25 -71 0 -73 -1 -76 -25 -3 -25 1 -26 90
-44 51 -10 171 -38 266 -62 96 -24 178 -42 183 -38 5 3 9 14 9 25 0 14 -16 26
-57 45 -32 13 -61 30 -65 37 -17 26 -6 109 38 290 25 105 51 205 59 223 20 48
54 67 108 59 38 -6 47 -4 55 12 16 29 3 40 -63 53 -33 6 -142 31 -242 56 -204
49 -187 46 -196 37z"/>
<path d="M10985 3207 c-269 -70 -424 -343 -315 -556 45 -89 138 -165 240 -195
83 -25 224 -21 303 7 134 49 226 126 280 237 29 58 32 74 32 155 0 78 -4 97
-28 147 -36 74 -125 155 -203 187 -72 29 -230 38 -309 18z m152 -118 c56 -27
117 -98 143 -165 29 -79 28 -192 -4 -260 -78 -169 -285 -146 -377 41 -112 229
42 479 238 384z"/>
<path d="M9925 3010 c-109 -35 -209 -134 -236 -233 -6 -23 -9 -78 -7 -123 6
-124 54 -192 159 -229 64 -23 145 -19 207 10 44 20 53 29 50 47 -2 18 -9 22
-28 20 -74 -9 -150 106 -158 238 -7 119 27 193 92 206 70 13 129 -50 157 -166
20 -83 15 -268 -10 -363 -54 -205 -185 -364 -361 -437 -67 -28 -83 -41 -74
-63 8 -22 34 -21 130 3 286 73 489 271 554 541 62 262 -25 490 -213 553 -65
22 -186 20 -262 -4z"/>
</g>
</svg>
