<?xml version="1.0" standalone="no"?>
<!DOCTYPE svg PUBLIC "-//W3C//DTD SVG 20010904//EN"
 "http://www.w3.org/TR/2001/REC-SVG-20010904/DTD/svg10.dtd">
<svg version="1.0" xmlns="http://www.w3.org/2000/svg"
 width="1050.000000pt" height="682.000000pt" viewBox="0 0 1050.000000 682.000000"
 preserveAspectRatio="xMidYMid meet">

<g transform="translate(0.000000,682.000000) scale(0.100000,-0.100000)"
fill="#000000" stroke="none">
<path d="M5335 5463 c-62 -16 -95 -77 -75 -138 13 -39 40 -57 113 -76 51 -12
72 -31 63 -54 -8 -22 -84 -19 -122 4 l-32 19 -21 -28 -21 -29 26 -20 c14 -11
50 -25 79 -32 97 -22 175 27 175 109 0 48 -34 79 -110 103 -67 20 -91 42 -70
63 15 15 77 10 105 -8 23 -15 25 -14 46 15 22 31 22 32 3 43 -53 31 -109 41
-159 29z"/>
<path d="M7335 5451 c-106 -48 -144 -170 -82 -262 72 -106 214 -115 301 -19
130 144 -40 363 -219 281z m146 -90 c24 -24 29 -38 29 -76 0 -64 -39 -105
-100 -105 -61 0 -100 41 -100 105 0 64 39 105 100 105 33 0 48 -6 71 -29z"/>
<path d="M2452 5333 c4 -155 16 -185 85 -215 79 -35 162 -12 203 55 17 27 20
51 20 160 l0 127 -40 0 -40 0 0 -120 c0 -107 -2 -122 -20 -140 -26 -26 -81
-26 -103 -2 -14 15 -17 41 -17 140 l0 122 -46 0 -46 0 4 -127z"/>
<path d="M2960 5286 l0 -176 45 0 44 0 3 102 3 102 78 -102 c72 -94 81 -102
113 -102 l34 0 0 175 0 175 -40 0 -39 0 -3 -101 -3 -102 -75 99 c-72 96 -77
99 -118 102 l-42 3 0 -175z"/>
<path d="M3500 5285 l0 -175 40 0 40 0 0 175 0 175 -40 0 -40 0 0 -175z"/>
<path d="M3770 5453 c0 -4 30 -83 67 -175 l67 -168 37 0 37 0 70 175 70 175
-43 0 -43 0 -30 -77 c-16 -43 -35 -95 -42 -116 -7 -22 -16 -35 -21 -30 -4 4
-25 55 -46 113 l-38 105 -43 3 c-23 2 -42 0 -42 -5z"/>
<path d="M4300 5285 l0 -175 135 0 135 0 0 35 0 35 -95 0 -95 0 0 35 0 34 83
3 82 3 3 33 3 32 -85 0 -86 0 0 35 0 35 95 0 95 0 0 35 0 35 -135 0 -135 0 0
-175z"/>
<path d="M4770 5285 l0 -175 40 0 40 0 0 55 c0 54 1 55 29 55 23 0 35 -10 65
-55 35 -53 38 -55 81 -55 25 0 45 3 45 6 0 4 -16 29 -35 55 -19 27 -35 53 -35
58 0 5 11 16 25 25 26 17 49 82 39 112 -26 81 -52 94 -189 94 l-105 0 0 -175z
m191 95 c12 -7 19 -21 19 -40 0 -36 -23 -50 -84 -50 l-46 0 0 50 0 50 46 0
c25 0 54 -5 65 -10z"/>
<path d="M5720 5285 l0 -175 40 0 40 0 0 175 0 175 -40 0 -40 0 0 -175z"/>
<path d="M5990 5425 l0 -35 55 0 55 0 0 -140 0 -140 40 0 40 0 0 140 0 140 55
0 55 0 0 35 0 35 -150 0 -150 0 0 -35z"/>
<path d="M6446 5448 c4 -7 34 -54 66 -105 56 -90 58 -94 58 -163 l0 -70 40 0
40 0 0 68 c0 66 2 70 61 162 81 125 80 120 27 120 -44 0 -44 0 -83 -66 -44
-76 -41 -76 -97 20 -26 44 -29 46 -73 46 -34 0 -44 -3 -39 -12z"/>
<path d="M7760 5285 l0 -175 40 0 40 0 0 65 0 65 85 0 85 0 0 40 0 40 -85 0
-85 0 0 35 0 35 95 0 95 0 0 35 0 35 -135 0 -135 0 0 -175z"/>
<path d="M2531 4868 c-5 -13 -41 -124 -81 -248 -39 -124 -75 -228 -79 -233 -4
-4 -41 104 -82 240 l-75 248 -93 3 c-85 3 -92 1 -87 -15 3 -10 62 -182 130
-383 l124 -365 74 -3 75 -3 84 245 c46 134 86 242 89 240 2 -3 41 -112 86
-242 l81 -237 75 -3 74 -3 94 278 c51 153 110 327 131 386 l39 108 -92 -3 -91
-3 -76 -247 c-41 -136 -77 -245 -80 -242 -3 3 -42 116 -86 252 l-81 247 -72 3
c-67 3 -73 1 -81 -20z"/>
<path d="M7070 4876 c-78 -21 -140 -59 -195 -118 -75 -81 -99 -146 -100 -268
0 -86 3 -101 32 -162 74 -156 221 -238 406 -225 148 10 273 94 336 227 23 49
26 67 26 165 0 98 -3 116 -26 165 -83 175 -289 268 -479 216z m211 -173 c43
-22 61 -40 87 -83 28 -47 32 -63 32 -122 0 -77 -13 -117 -56 -167 -57 -68
-173 -91 -260 -52 -49 23 -107 88 -122 140 -62 206 131 378 319 284z"/>
<path d="M7949 4876 c-152 -44 -257 -157 -289 -311 -15 -71 -8 -144 22 -222
30 -81 130 -181 213 -213 179 -68 382 -15 491 127 104 136 104 340 0 476 -41
54 -112 107 -173 131 -62 23 -203 30 -264 12z m231 -180 c155 -102 136 -350
-32 -420 -77 -33 -182 -14 -241 42 -51 48 -71 99 -71 177 0 103 47 180 134
220 54 24 159 15 210 -19z"/>
<path d="M3447 4873 c-13 -21 -317 -744 -317 -753 0 -6 32 -10 83 -10 l84 0
34 85 34 85 161 0 161 0 34 -82 34 -83 89 -3 c86 -3 87 -2 81 19 -4 11 -77
185 -162 385 l-155 364 -78 0 c-44 0 -81 -3 -83 -7z m128 -317 c25 -59 45
-112 45 -117 0 -5 -43 -9 -96 -9 -87 0 -96 2 -90 18 29 76 90 221 93 219 1 -2
23 -52 48 -111z"/>
<path d="M3880 4800 l0 -80 115 0 115 0 0 -305 0 -306 88 3 87 3 3 303 2 302
116 0 115 0 -3 78 -3 77 -317 3 -318 2 0 -80z"/>
<path d="M4640 4495 l0 -385 290 0 290 0 0 75 0 75 -205 0 -205 0 0 80 0 80
180 0 180 0 0 75 0 75 -180 0 -180 0 0 75 0 75 203 2 202 3 3 78 3 77 -291 0
-290 0 0 -385z"/>
<path d="M5400 4495 l0 -385 85 0 85 0 0 120 0 120 68 0 67 0 79 -120 79 -120
99 0 c76 0 98 3 92 13 -4 6 -45 67 -91 134 -45 68 -83 124 -83 127 0 2 14 9
30 16 48 20 106 93 120 151 25 105 -11 219 -86 271 -66 47 -136 58 -351 58
l-193 0 0 -385z m410 212 c14 -7 33 -29 43 -50 16 -31 17 -42 7 -72 -21 -64
-47 -75 -176 -75 l-114 0 0 105 0 105 108 0 c65 0 117 -5 132 -13z"/>
<path d="M6220 4495 l0 -385 265 0 265 0 0 80 0 80 -180 0 -180 0 0 305 0 305
-85 0 -85 0 0 -385z"/>
<path d="M4194 3518 c19 -724 83 -1063 267 -1431 158 -316 392 -554 700 -712
l76 -38 89 47 c251 134 435 297 576 511 180 273 296 622 342 1025 19 163 36
501 36 703 l0 147 -1046 0 -1047 0 7 -252z m2046 190 c-2 -144 -23 -609 -30
-696 -19 -208 -80 -534 -109 -581 -7 -10 -110 67 -432 323 -233 185 -427 336
-431 336 -4 0 -194 -149 -424 -331 -229 -182 -422 -333 -429 -335 -23 -9 -83
249 -109 471 -22 195 -28 278 -35 564 l-6 261 1003 0 c795 0 1002 -3 1002 -12z
m-587 -1099 c218 -173 396 -319 397 -326 0 -21 -60 -145 -70 -141 -5 1 -168
129 -361 283 -194 154 -360 284 -369 288 -14 7 -98 -55 -391 -287 l-373 -296
-33 77 c-25 55 -31 79 -23 87 53 53 799 634 810 632 9 -2 194 -144 413 -317z
m-64 -320 c182 -144 331 -268 331 -274 0 -6 -28 -54 -61 -106 -117 -178 -325
-363 -543 -480 l-79 -43 -66 34 c-216 112 -432 301 -554 486 -37 55 -67 105
-67 110 1 18 675 544 692 540 9 -2 166 -122 347 -267z"/>
<path d="M6033 3660 c-37 -15 -56 -66 -50 -130 4 -31 11 -67 16 -81 8 -21 10
-17 11 26 1 71 31 105 60 70 10 -11 8 -35 -10 -117 -21 -99 -22 -161 -4 -234
5 -19 1 -23 -23 -26 -22 -2 -29 -9 -31 -30 -2 -15 1 -35 6 -44 9 -16 10 -15
16 3 9 28 31 36 47 17 6 -8 14 -36 17 -63 3 -40 1 -52 -17 -70 -26 -26 -49
-27 -58 -3 -4 9 -17 31 -29 48 -38 50 -66 122 -69 182 l-4 57 -42 3 c-34 3
-47 -2 -69 -23 -24 -23 -28 -24 -40 -10 -17 21 -30 9 -30 -28 0 -27 12 -44 80
-107 44 -41 80 -81 80 -87 0 -7 -11 -15 -25 -19 -34 -8 -55 -41 -55 -85 0 -52
24 -69 96 -69 91 0 127 -39 94 -101 -15 -28 -37 -23 -49 11 -11 33 -31 39 -51
15 -11 -13 -10 -18 5 -29 17 -12 17 -13 -4 -19 -26 -6 -30 -45 -3 -43 12 1 16
-5 14 -21 -3 -20 1 -23 28 -23 18 0 33 6 36 15 8 20 31 19 42 -1 10 -17 11
-14 45 92 18 56 22 104 8 104 -17 0 -61 50 -61 69 0 14 9 21 33 26 71 16 87
60 61 170 -14 58 -15 80 -6 97 6 13 12 66 14 119 3 93 2 96 -13 72 -39 -59
-20 39 24 124 22 43 22 105 0 126 -24 21 -63 28 -90 17z"/>
<path d="M4817 3642 c-6 -9 -21 -11 -50 -7 -49 8 -157 -27 -157 -50 0 -11 6
-12 26 -5 17 7 32 7 45 0 37 -20 16 -90 -26 -90 -14 0 -25 -4 -25 -10 0 -5 11
-10 24 -10 104 0 172 36 160 85 -3 14 -1 31 6 40 6 7 10 24 8 37 -2 17 -5 19
-11 10z m-76 -37 c0 -5 -9 -11 -21 -13 -20 -3 -27 8 -13 22 10 9 34 3 34 -9z"/>
<path d="M4343 3633 c-19 -7 -16 -34 5 -49 9 -7 13 -14 7 -14 -5 0 -16 -4 -24
-9 -12 -8 -12 -12 2 -25 8 -9 22 -16 29 -16 23 0 58 -30 58 -51 0 -10 6 -19
14 -19 8 0 23 -16 35 -35 11 -19 27 -35 34 -35 8 0 22 -9 32 -20 27 -30 67
-26 86 9 l17 29 -39 11 c-42 13 -102 60 -122 95 -6 11 -14 43 -17 70 -5 52
-27 74 -37 37 -7 -28 -17 -27 -37 4 -17 25 -21 27 -43 18z"/>
<path d="M5743 3622 c-54 -21 -59 -47 -8 -38 31 6 36 4 44 -16 12 -34 1 -59
-32 -70 -26 -9 -27 -12 -12 -21 21 -11 80 -3 122 18 21 10 36 28 43 51 7 20
18 38 26 41 8 3 14 13 14 22 0 13 -10 17 -42 18 -24 1 -59 3 -78 6 -20 3 -53
-1 -77 -11z m81 -11 c3 -5 -4 -11 -16 -14 -25 -7 -33 -3 -23 12 8 13 32 14 39
2z"/>
<path d="M5110 3609 c-59 -24 -114 -101 -126 -177 -4 -29 -1 -52 15 -87 22
-51 21 -65 -9 -65 -11 0 -24 -9 -30 -20 -10 -18 -8 -20 19 -20 21 0 35 -7 46
-24 14 -21 14 -28 1 -59 -14 -35 -41 -57 -70 -57 -26 0 -78 52 -97 98 -15 35
-23 43 -37 37 -9 -4 -42 -10 -74 -14 -53 -7 -88 -23 -88 -42 0 -5 27 -22 59
-39 74 -37 80 -45 31 -45 -108 0 -108 -125 0 -152 47 -12 49 -35 5 -56 -44
-21 -69 -21 -100 -1 -29 19 -49 10 -42 -18 4 -14 0 -22 -13 -25 -34 -9 -37
-53 -3 -53 13 0 13 -3 3 -15 -7 -8 -10 -21 -7 -29 8 -21 46 -14 67 14 14 19
21 22 32 12 12 -9 22 -3 52 34 21 24 62 59 92 76 l55 31 -30 31 c-40 42 -39
54 6 58 30 2 42 10 58 35 13 21 28 32 43 33 32 0 78 48 92 96 6 21 14 67 17
101 3 35 12 68 19 74 17 14 18 45 3 54 -5 4 -23 -7 -40 -24 -35 -37 -48 -23
-29 33 25 78 86 106 154 71 37 -19 39 -19 31 5 -6 18 -2 20 37 20 42 0 118 34
125 55 3 12 -144 57 -202 61 -22 2 -51 -1 -65 -7z"/>
<path d="M5530 3584 c0 -21 -3 -24 -20 -19 -28 9 -54 -13 -39 -31 6 -8 18 -14
25 -14 19 0 18 -16 -1 -24 -8 -3 -15 -15 -15 -26 0 -15 7 -20 25 -20 14 0 25
5 25 10 0 17 36 11 53 -8 10 -10 17 -26 17 -35 0 -10 8 -17 19 -17 10 0 29 -9
43 -20 l25 -19 21 28 20 28 -53 32 c-69 42 -85 60 -92 107 -3 22 -11 42 -17
46 -22 15 -36 8 -36 -18z"/>
<path d="M4840 3562 c0 -50 -27 -91 -81 -119 -91 -49 -126 -87 -139 -149 -13
-61 -7 -95 12 -76 7 7 24 12 38 12 14 0 43 10 65 21 32 17 43 19 58 9 15 -9
21 -9 27 0 4 7 17 9 34 4 26 -6 26 -5 15 20 -10 22 -9 36 4 80 25 79 19 144
-20 201 -13 19 -13 19 -13 -3z"/>
<path d="M5640 3538 c25 -20 61 -23 91 -7 33 17 11 29 -53 27 -60 -2 -61 -2
-38 -20z"/>
<path d="M4595 3545 c-5 -2 -23 -6 -38 -9 -48 -11 -18 -26 51 -26 l67 1 -24
19 c-22 19 -34 22 -56 15z"/>
<path d="M5917 3520 c-10 -16 -48 -48 -85 -70 -76 -45 -100 -65 -125 -100 -25
-36 -22 -46 23 -68 l41 -20 39 21 c33 18 44 20 77 11 l39 -10 14 80 c25 140
13 218 -23 156z"/>
<path d="M5467 3394 c-11 -11 -8 -49 5 -62 9 -9 4 -9 -19 0 -25 9 -35 9 -47
-1 -21 -17 -20 -31 1 -46 12 -9 23 -10 35 -4 22 12 24 -4 3 -21 -17 -14 -20
-46 -4 -55 6 -4 26 4 46 18 36 26 63 26 63 1 0 -8 6 -14 14 -14 7 0 30 -11 50
-25 21 -14 53 -32 72 -40 35 -14 35 -14 27 8 -4 12 -7 37 -7 55 0 26 -3 32
-21 32 -12 0 -45 7 -74 16 -44 13 -54 20 -67 52 -31 72 -40 87 -55 90 -8 1
-18 0 -22 -4z"/>
<path d="M4342 3366 c4 -18 0 -26 -14 -29 -24 -7 -23 -34 1 -42 14 -4 19 -14
18 -32 -1 -18 3 -26 15 -28 10 -2 20 1 24 6 9 15 44 10 44 -6 0 -14 3 -14 28
-1 18 9 33 11 43 5 8 -5 31 -9 52 -9 36 0 37 1 37 34 0 34 -1 35 -35 29 -19
-3 -56 0 -81 7 -35 10 -51 22 -70 52 -29 45 -70 55 -62 14z"/>
<path d="M4575 3126 c-9 -13 -14 -38 -13 -57 3 -36 -13 -46 -57 -35 -16 4 -25
15 -29 41 -8 40 -47 58 -72 33 -12 -12 -12 -17 6 -35 l20 -22 -33 -3 c-22 -2
-33 -9 -35 -22 -5 -26 13 -42 32 -27 12 10 15 8 18 -16 4 -33 30 -34 64 -2 16
15 23 16 32 7 7 -7 12 -18 12 -24 0 -9 8 -9 30 2 16 9 44 16 61 16 25 1 30 4
25 21 -6 24 9 66 35 93 20 21 20 21 -5 38 -36 23 -73 20 -91 -8z"/>
<path d="M5745 3049 c-4 -5 -10 -31 -13 -56 -12 -81 -57 -84 -98 -7 -22 42
-46 53 -69 34 -20 -17 -19 -30 3 -31 13 0 13 -2 -4 -9 -12 -5 -25 -14 -29 -20
-9 -14 14 -42 30 -36 8 3 10 -4 7 -19 -4 -24 19 -48 26 -27 5 15 35 15 50 0 9
-9 18 -9 37 0 14 7 41 12 60 12 32 0 35 3 35 29 0 17 11 42 25 59 28 33 31 52
13 70 -15 15 -64 16 -73 1z"/>
<path d="M5356 2412 c-5 -9 -27 -10 -75 -6 -47 5 -70 3 -75 -5 -4 -6 -23 -18
-42 -26 -41 -17 -45 -34 -6 -32 23 2 27 -2 30 -27 3 -22 -3 -34 -20 -48 l-23
-18 25 0 c44 0 149 56 162 87 7 15 18 36 26 45 8 9 12 23 10 29 -3 10 -6 10
-12 1z m-100 -37 c-10 -8 -23 -12 -28 -9 -14 9 2 24 25 24 21 -1 21 -1 3 -15z"/>
<path d="M5360 2337 c0 -26 -60 -74 -121 -96 -63 -24 -102 -63 -115 -116 -5
-25 -4 -28 7 -17 20 19 41 15 34 -7 -5 -17 -2 -18 28 -11 19 4 40 10 46 14 6
4 11 0 11 -9 0 -10 16 -33 36 -53 32 -32 37 -34 46 -19 5 11 16 16 26 13 15
-5 17 4 18 72 0 42 4 109 8 147 7 60 6 73 -8 84 -14 11 -16 11 -16 -2z"/>
<path d="M5105 2321 c-11 -5 -26 -6 -34 -3 -9 3 -12 0 -9 -9 6 -17 39 -23 87
-14 34 6 35 8 16 21 -21 16 -31 16 -60 5z"/>
<path d="M5006 2273 c-4 -9 -2 -21 4 -27 26 -26 7 -26 -20 -1 -25 24 -34 27
-48 19 -24 -15 -21 -36 6 -50 22 -11 23 -12 3 -17 -31 -8 -29 -57 2 -57 12 0
32 7 43 15 24 16 34 11 34 -17 0 -10 2 -18 5 -18 16 0 75 31 77 39 0 6 1 16 2
21 1 6 -10 16 -24 23 -17 8 -26 22 -28 42 -5 43 -43 62 -56 28z"/>
<path d="M5456 2236 c-33 -32 -32 -51 4 -105 19 -27 30 -57 30 -78 0 -46 13
-41 44 18 31 61 32 80 6 104 -23 21 -26 35 -6 35 21 0 64 -56 71 -93 3 -18 2
-45 -3 -62 -7 -25 -14 -31 -42 -33 -22 -2 -29 -6 -21 -12 17 -10 5 -30 -18
-30 -18 0 -41 -38 -41 -67 0 -15 2 -15 18 0 23 21 46 22 61 3 32 -38 -33 -118
-94 -118 -65 0 -104 61 -105 164 0 42 -14 57 -30 31 -9 -16 -16 -12 -59 36
-33 35 -54 50 -62 45 -7 -4 -27 -8 -43 -8 -36 -1 -44 -22 -25 -68 9 -23 28
-37 73 -58 34 -15 70 -35 81 -44 19 -15 18 -15 -20 -16 -50 0 -65 -14 -65 -57
0 -40 28 -71 91 -103 73 -37 81 -47 63 -82 -23 -45 -60 -34 -78 25 -4 11 -16
17 -36 17 -33 0 -35 -2 -19 -32 8 -15 8 -19 -1 -13 -17 11 -57 -3 -64 -22 -8
-21 12 -35 42 -28 l23 6 -22 -30 c-27 -37 -20 -60 15 -54 14 3 26 11 26 18 0
15 32 45 49 45 7 0 10 -4 7 -9 -11 -17 25 -21 50 -5 13 9 44 42 69 72 l44 56
-45 41 c-44 41 -59 73 -28 61 82 -31 141 -10 179 64 14 27 39 59 55 72 20 15
30 30 30 49 0 14 9 38 20 52 l20 26 -20 6 c-12 4 -27 1 -35 -5 -13 -11 -15 -6
-15 32 0 80 -55 158 -122 174 -21 4 -33 0 -52 -20z"/>
<path d="M4824 2145 c-18 -14 -18 -16 -1 -26 23 -14 22 -28 -3 -22 -24 6 -50
-13 -50 -37 0 -20 26 -34 43 -23 6 4 8 0 4 -9 -6 -17 10 -38 30 -38 7 0 19 11
25 25 14 30 28 32 35 5 6 -23 11 -24 48 -10 20 7 34 6 57 -6 24 -12 113 -43
126 -44 2 0 -4 10 -12 22 -9 12 -16 35 -16 50 0 28 0 28 -70 28 -83 0 -140 20
-140 49 0 11 -10 27 -22 35 -28 20 -30 20 -54 1z"/>
<path d="M5077 1912 c-22 -24 -21 -34 3 -64 24 -32 18 -38 -37 -38 -55 0 -79
12 -87 45 -5 18 -13 25 -30 25 -31 0 -42 -28 -19 -46 17 -12 16 -13 -8 -14
-25 0 -39 -16 -39 -44 0 -9 9 -12 25 -8 22 4 25 1 25 -27 0 -24 4 -31 20 -31
10 0 24 8 29 18 12 23 81 29 81 7 0 -11 12 -9 53 10 28 14 64 25 79 25 25 0
27 2 18 26 -13 33 -3 71 23 89 21 14 21 15 2 15 -11 0 -29 7 -39 15 -27 21
-79 19 -99 -3z"/>
</g>
</svg>
