<?xml version="1.0" standalone="no"?>
<!DOCTYPE svg PUBLIC "-//W3C//DTD SVG 20010904//EN"
 "http://www.w3.org/TR/2001/REC-SVG-20010904/DTD/svg10.dtd">
<svg version="1.0" xmlns="http://www.w3.org/2000/svg"
 width="1528.000000pt" height="900.000000pt" viewBox="0 0 1528.000000 900.000000"
 preserveAspectRatio="xMidYMid meet">

<g transform="translate(0.000000,900.000000) scale(0.100000,-0.100000)"
fill="#000000" stroke="none">
<path d="M140 4490 l0 -4400 7525 0 7525 0 0 4400 0 4400 -7525 0 -7525 0 0
-4400z m14950 -5 l0 -4305 -7425 0 -7425 0 0 4305 0 4305 7425 0 7425 0 0
-4305z"/>
<path d="M440 4475 l0 -4075 7220 0 7220 0 0 4075 0 4075 -7220 0 -7220 0 0
-4075z m1370 3315 c0 -74 5 -152 10 -172 19 -68 85 -89 137 -44 l28 24 3 160
c3 124 6 162 17 166 7 2 19 -2 26 -10 17 -20 5 -290 -15 -338 -39 -94 -182
-98 -228 -6 -15 29 -18 63 -18 195 0 154 1 161 20 161 19 0 20 -7 20 -136z
m428 -24 l87 -159 3 156 c2 145 4 155 22 160 19 5 20 -1 20 -204 l0 -209 -22
0 c-19 0 -37 27 -108 158 l-85 157 -3 -157 c-2 -150 -4 -158 -22 -158 -19 0
-20 8 -20 209 0 205 0 208 21 207 16 -1 40 -36 107 -160z m262 -48 c0 -201 -1
-208 -20 -208 -19 0 -20 7 -20 203 0 112 2 206 5 209 3 2 12 5 20 5 13 0 15
-30 15 -209z m111 139 c12 -40 36 -121 54 -181 17 -60 34 -105 37 -100 3 5 27
81 53 169 47 162 65 199 86 178 7 -7 -8 -67 -53 -209 -59 -183 -66 -199 -88
-202 -24 -3 -28 5 -88 195 -34 109 -62 203 -62 208 0 6 9 11 20 12 16 1 23
-11 41 -70z m532 52 c5 -17 -6 -41 -17 -40 -3 1 -46 1 -96 1 l-90 0 0 -60 0
-60 95 0 c95 0 95 0 95 -25 0 -25 0 -25 -95 -25 l-95 0 0 -70 0 -70 105 0 105
0 0 -25 0 -25 -125 0 -125 0 0 204 c0 142 3 205 11 208 6 2 60 4 120 3 91 0
109 -3 112 -16z m307 1 c72 -39 57 -180 -22 -206 -19 -6 -19 -6 0 -27 20 -22
92 -147 92 -160 0 -4 -11 -7 -24 -7 -20 0 -31 13 -61 68 -53 96 -70 112 -122
112 l-43 0 0 -90 c0 -83 -1 -90 -20 -90 -19 0 -20 7 -20 209 l0 208 100 -3
c55 -2 109 -8 120 -14z m311 -3 c39 -26 61 -83 38 -98 -21 -13 -27 -11 -35 14
-11 39 -35 57 -73 57 -49 0 -81 -24 -81 -59 0 -37 12 -46 93 -71 82 -26 117
-62 117 -124 0 -67 -38 -111 -107 -122 -72 -11 -141 37 -157 109 -6 24 -4 27
19 27 16 0 25 -6 25 -16 0 -8 14 -29 30 -46 27 -27 36 -30 73 -25 46 6 77 35
77 72 0 29 -24 49 -83 69 -69 23 -105 43 -117 65 -13 25 -13 84 1 114 26 57
119 75 180 34z m177 -190 c2 -202 2 -207 -18 -207 -19 0 -20 6 -20 203 0 112
3 207 7 211 23 23 28 -13 31 -207z m322 181 c0 -25 -2 -26 -55 -25 l-55 2 0
-182 0 -183 -25 0 -24 0 0 182 0 182 -33 -1 c-52 -3 -78 5 -78 26 0 10 3 21 7
24 3 4 64 6 135 5 l128 -3 0 -27z m54 26 c9 -3 37 -46 63 -95 27 -49 50 -89
53 -89 3 0 25 39 50 86 44 84 73 115 91 97 5 -5 -20 -58 -56 -122 l-65 -113 0
-89 c0 -88 0 -89 -25 -89 -25 0 -25 1 -25 92 l0 91 -61 109 c-62 112 -68 138
-25 122z m656 -9 c108 -56 135 -254 49 -358 -76 -92 -209 -61 -255 58 -25 67
-16 191 18 243 44 65 124 90 188 57z m383 6 c4 -1 7 -11 7 -24 0 -23 -2 -23
-90 -23 -53 1 -90 -3 -91 -9 -1 -5 -2 -34 -3 -62 l-1 -53 76 0 c61 0 78 -3 83
-16 11 -28 -4 -34 -80 -34 -63 0 -74 -2 -75 -17 0 -10 -1 -53 -1 -95 -1 -75
-2 -78 -24 -78 l-24 0 0 204 0 205 33 3 c28 3 169 2 190 -1z m3427 -113 c-1
-160 -17 -513 -31 -653 -20 -204 -91 -528 -115 -523 -11 3 -146 109 -733 575
-64 51 -118 93 -121 93 -3 0 -34 -24 -70 -53 -36 -28 -160 -126 -274 -217
-115 -91 -278 -220 -363 -288 -85 -68 -156 -122 -158 -120 -2 2 -15 46 -29 98
-54 201 -91 494 -101 796 -3 104 -8 240 -11 302 l-5 112 1006 0 1005 0 0 -122z
m47 -55 c-3 -10 -5 -2 -5 17 0 19 2 27 5 18 2 -10 2 -26 0 -35z m-847 -765
c106 -84 204 -162 219 -173 39 -29 374 -296 389 -309 10 -10 6 -27 -20 -89
-18 -43 -35 -76 -39 -75 -11 4 -435 339 -659 520 -46 37 -87 68 -90 68 -3 0
-91 -69 -196 -153 -349 -278 -545 -432 -553 -435 -8 -2 -71 129 -71 146 0 9
13 20 319 263 107 85 260 207 340 271 81 64 151 117 158 117 6 1 98 -68 203
-151z m-2641 -144 c116 -63 181 -198 181 -378 0 -100 -14 -169 -50 -243 -116
-236 -415 -236 -529 0 -69 143 -69 341 1 485 35 71 79 114 152 149 71 34 169
29 245 -13z m696 11 c124 -60 195 -206 195 -398 0 -186 -77 -333 -203 -387
-218 -95 -426 92 -427 381 0 270 124 433 325 426 44 -2 85 -10 110 -22z
m-5001 -2 c3 -10 30 -133 61 -272 31 -140 57 -256 59 -258 1 -2 15 43 30 99
14 57 47 181 73 276 l46 172 96 0 97 0 69 -280 c38 -153 71 -278 72 -276 3 2
54 232 108 479 l17 77 79 0 c60 0 79 -3 79 -14 0 -12 -173 -734 -186 -779 -5
-16 -16 -17 -92 -15 l-87 3 -72 270 c-40 149 -75 281 -79 295 -6 23 -7 24 -14
5 -4 -11 -41 -145 -81 -298 l-74 -278 -89 3 -90 3 -93 390 c-51 215 -93 396
-93 403 0 8 22 12 79 12 67 0 81 -3 85 -17z m1366 -375 c73 -216 135 -399 138
-405 3 -9 -10 -13 -47 -13 l-51 0 -37 120 -37 120 -142 0 -141 0 -34 -117 -35
-118 -48 -3 c-39 -3 -48 0 -43 11 3 8 60 187 127 398 67 211 124 387 127 392
2 4 24 7 47 7 l43 0 133 -392z m620 342 l0 -50 -110 0 -110 0 0 -355 0 -355
-45 0 -45 0 0 355 0 354 -107 3 -108 3 -3 33 c-6 65 -18 62 268 62 l260 0 0
-50z m570 0 l0 -50 -195 0 -196 0 3 -121 3 -122 165 2 c91 1 173 -1 183 -4 12
-5 17 -19 17 -51 l0 -44 -185 0 -185 0 0 -135 c0 -101 3 -135 13 -136 6 0 98
-1 202 -2 l190 -2 3 -47 3 -48 -250 0 -251 0 0 398 c0 219 3 402 7 405 3 4
111 7 240 7 l233 0 0 -50z m567 27 c38 -20 76 -68 92 -116 17 -52 13 -140 -8
-188 -21 -45 -84 -98 -131 -108 l-28 -6 42 -44 c35 -36 186 -294 186 -318 0
-4 -24 -7 -52 -7 l-53 0 -64 123 c-115 219 -134 237 -256 237 l-65 0 0 -180 0
-180 -45 0 -45 0 0 406 0 406 198 -4 c162 -3 203 -7 229 -21z m321 -322 c1
-187 2 -346 2 -353 0 -9 40 -12 160 -12 l160 0 0 -50 0 -50 -205 0 -205 0 0
406 0 405 43 -3 42 -3 3 -340z m3433 148 c69 -54 142 -113 164 -130 22 -18
120 -96 218 -173 97 -77 177 -143 177 -147 0 -3 -29 -49 -64 -102 -78 -117
-204 -253 -306 -331 -92 -70 -242 -162 -294 -181 -36 -13 -41 -12 -103 21
-165 87 -346 231 -459 365 -47 55 -139 190 -151 221 -5 12 26 38 408 339 112
88 217 172 233 187 17 15 36 28 42 28 6 0 67 -44 135 -97z m4719 72 c252 -37
432 -92 656 -200 235 -112 453 -266 612 -430 197 -205 287 -381 349 -690 22
-110 25 -482 4 -580 -37 -179 -63 -261 -114 -355 -26 -49 -122 -187 -138 -200
-3 -3 -35 -41 -69 -84 -100 -126 -226 -316 -280 -423 -101 -196 -103 -243 -24
-486 87 -268 114 -343 167 -472 85 -207 87 -216 76 -237 -7 -14 -19 -18 -41
-16 -36 3 -45 17 -98 143 -18 44 -39 94 -46 111 -7 17 -43 120 -80 230 -36
109 -72 215 -79 234 -39 106 -55 181 -55 252 0 68 5 89 42 175 76 178 170 329
327 526 238 298 268 361 321 661 13 78 13 363 -1 440 -38 213 -60 292 -115
403 -76 154 -186 287 -344 416 -41 34 -77 64 -80 68 -3 4 -58 41 -124 84 -171
111 -393 218 -531 255 -16 5 -61 17 -100 28 -201 58 -471 84 -650 63 -55 -6
-161 -28 -235 -47 -74 -20 -146 -38 -160 -41 -14 -3 -56 -14 -95 -25 -256 -75
-427 -166 -626 -334 -114 -96 -168 -158 -211 -241 -48 -90 -134 -305 -148
-368 -6 -27 -15 -70 -21 -95 -5 -25 -8 -133 -7 -240 3 -203 2 -208 -45 -310
-56 -119 -183 -288 -280 -372 -85 -73 -117 -114 -117 -150 0 -34 36 -77 89
-105 22 -13 60 -33 82 -45 52 -29 117 -91 129 -124 19 -50 15 -66 -53 -188
-20 -37 -10 -52 47 -67 72 -20 96 -31 107 -51 15 -27 2 -55 -29 -66 -32 -11
-72 -45 -72 -60 0 -6 16 -24 35 -39 99 -78 111 -160 60 -393 -36 -164 28 -237
225 -255 85 -8 209 5 542 55 37 5 122 10 188 10 141 0 159 -7 208 -79 46 -68
70 -139 97 -285 13 -72 34 -160 45 -195 20 -60 20 -64 4 -82 -9 -10 -28 -19
-40 -19 -42 0 -62 55 -105 295 -22 120 -57 211 -94 249 -22 21 -218 21 -360 1
-55 -8 -149 -22 -210 -31 -130 -19 -302 -21 -381 -3 -81 18 -152 65 -188 123
-42 67 -46 148 -16 286 14 63 20 121 18 151 -5 44 -11 54 -62 103 -55 53 -62
70 -58 131 1 11 8 31 14 43 10 20 10 25 -5 33 -48 28 -69 56 -74 101 -5 40 -1
56 31 113 20 36 36 71 36 78 0 19 -69 74 -142 112 -104 55 -168 134 -168 206
0 59 31 103 154 224 125 122 208 233 264 353 26 56 27 61 27 267 1 252 5 276
68 455 46 131 107 269 145 330 57 90 226 247 374 348 139 95 315 174 496 222
329 89 341 92 417 105 98 17 400 17 515 0z m-365 -158 c17 0 59 4 95 8 50 6
74 4 103 -8 27 -12 45 -14 63 -7 37 15 130 12 183 -4 25 -8 75 -20 111 -26 36
-6 80 -20 98 -31 18 -10 42 -19 52 -19 41 0 239 -90 283 -129 12 -10 39 -16
72 -16 46 -1 60 -7 109 -43 56 -43 110 -94 177 -167 20 -22 54 -56 75 -77 22
-20 47 -44 57 -55 10 -10 35 -34 55 -54 21 -19 52 -64 71 -100 86 -167 92
-182 90 -212 -2 -18 5 -47 14 -65 10 -18 17 -48 15 -67 -1 -26 5 -42 25 -62
14 -16 33 -48 42 -72 21 -61 31 -237 15 -276 -7 -16 -14 -88 -16 -160 -2 -71
-5 -139 -7 -150 -27 -143 -56 -210 -126 -291 -20 -22 -49 -57 -64 -77 -25 -34
-32 -37 -78 -37 -38 0 -51 -4 -55 -17 -26 -80 -137 -230 -227 -307 -130 -110
-244 -156 -412 -163 -118 -5 -198 8 -283 49 -24 11 -46 17 -50 13 -4 -4 -7
-57 -6 -118 0 -128 25 -223 75 -291 21 -30 26 -43 18 -52 -32 -38 -100 71
-130 208 -17 76 -20 111 -14 195 7 113 3 126 -62 216 -39 53 -73 134 -73 172
0 15 -7 28 -17 32 -22 9 -256 -26 -264 -38 -15 -24 9 -66 81 -144 83 -90 120
-155 165 -295 50 -152 118 -268 219 -373 55 -57 63 -76 38 -85 -18 -6 -125
102 -175 176 -62 92 -101 177 -142 305 -39 120 -51 142 -141 238 -65 70 -94
115 -94 148 0 22 -11 26 -97 35 -66 6 -138 38 -180 78 -27 26 -53 77 -77 151
-3 10 -30 29 -59 43 -75 34 -117 89 -117 153 0 49 -9 61 -46 61 -18 0 -45 5
-59 12 -20 9 -28 9 -33 1 -4 -7 -21 -19 -37 -27 -24 -12 -58 -14 -194 -9 -179
6 -250 19 -315 57 -55 32 -72 53 -85 103 -7 23 -16 45 -22 49 -18 11 -73 106
-96 164 -37 93 -45 164 -28 250 26 137 31 156 63 222 19 37 32 80 32 102 0 46
30 107 69 138 19 15 43 56 69 115 87 202 238 355 334 338 29 -5 38 -1 68 31
71 74 189 134 272 138 26 1 56 9 65 17 42 35 80 51 175 75 138 34 205 43 258
36 25 -3 59 -6 75 -5z m-9510 -1324 c67 -35 108 -93 121 -172 6 -39 5 -41 -19
-41 -14 0 -32 -3 -41 -6 -11 -4 -18 5 -26 35 -23 85 -94 130 -185 117 -91 -14
-139 -77 -115 -152 15 -46 49 -66 175 -105 165 -51 223 -107 232 -222 9 -107
-47 -201 -145 -243 -54 -23 -168 -21 -224 4 -84 37 -138 114 -152 215 -5 35
-3 37 25 39 16 0 34 1 40 2 6 1 19 -24 29 -54 12 -35 30 -65 50 -82 30 -25 97
-48 137 -48 41 0 99 24 125 52 24 25 28 39 28 85 0 78 -25 100 -166 147 -61
20 -131 50 -156 65 -138 88 -109 319 48 377 54 20 167 13 219 -13z m2560 3
c69 -32 123 -98 146 -178 7 -25 5 -30 -14 -37 -63 -24 -65 -23 -72 8 -10 45
-62 111 -100 127 -46 19 -102 17 -150 -5 -90 -42 -127 -119 -133 -277 -6 -178
32 -284 121 -335 49 -27 142 -24 185 8 38 28 71 79 84 130 6 24 13 43 16 43 2
0 22 -5 44 -12 37 -11 38 -13 32 -42 -12 -58 -58 -138 -101 -176 -114 -100
-306 -79 -389 43 -114 166 -116 471 -3 613 84 106 221 143 334 90z m-3860 3
c118 -19 185 -97 185 -217 0 -112 -54 -185 -159 -216 l-41 -12 45 -37 c45 -38
81 -86 174 -234 l51 -83 -98 0 -98 0 -100 147 c-54 80 -110 154 -124 164 -14
10 -51 21 -82 24 l-58 5 0 -170 0 -170 -85 0 -85 0 0 398 c0 219 3 402 7 406
10 10 397 6 468 -5z m805 -39 l0 -50 -195 0 -195 0 0 -120 c0 -108 2 -120 18
-120 9 0 91 -1 182 -3 l165 -2 3 -47 3 -48 -185 0 -186 0 0 -135 c0 -121 2
-135 18 -136 9 -1 100 -3 202 -5 l185 -3 3 -46 3 -45 -250 0 -251 0 0 398 c0
219 3 402 7 405 3 4 111 7 240 7 l233 0 0 -50z m1240 0 l0 -50 -195 0 -195 0
0 -120 0 -120 168 -1 c92 -1 174 -2 182 -3 11 -1 16 -15 18 -48 l3 -48 -185 0
-186 0 0 -134 0 -134 35 -6 c19 -4 104 -6 187 -6 84 1 161 1 171 0 14 0 17 -9
17 -45 l0 -45 -250 0 -250 0 0 398 c0 219 3 402 7 405 3 4 111 7 240 7 l233 0
0 -50z m456 -92 c26 -79 87 -259 135 -402 49 -142 89 -260 89 -262 0 -2 -22
-4 -50 -4 l-50 0 -37 120 -37 120 -142 0 -141 0 -33 -112 c-18 -62 -36 -117
-40 -121 -4 -5 -26 -7 -48 -5 l-41 3 123 385 c67 212 125 393 129 403 5 13 18
17 51 17 l44 0 48 -142z m721 119 c36 -19 69 -58 89 -106 20 -48 17 -147 -5
-198 -21 -45 -84 -98 -131 -108 l-28 -6 42 -44 c35 -36 186 -294 186 -318 0
-4 -24 -7 -52 -7 l-53 0 -64 123 c-115 219 -134 237 -256 237 l-65 0 0 -180 0
-180 -45 0 -45 0 0 406 0 406 198 -4 c161 -3 203 -7 229 -21z m993 -144 l0
-168 170 0 170 0 2 165 3 165 43 3 42 3 0 -405 0 -406 -45 0 -45 0 0 190 0
190 -170 0 -170 0 0 -190 0 -190 -45 0 -45 0 0 405 0 405 45 0 45 0 0 -167z
m948 -240 l2 -403 -45 0 -45 0 0 406 0 405 43 -3 42 -3 3 -402z m405 88 l172
-313 3 316 2 316 40 0 40 0 0 -405 0 -405 -44 0 -44 0 -174 317 -173 317 -3
-317 -2 -317 -40 0 -40 0 0 406 0 405 46 -3 46 -3 171 -314z m-4828 -1348 c63
-21 127 -85 148 -148 22 -64 22 -70 -8 -83 -41 -19 -51 -14 -63 27 -35 116
-162 164 -280 105 -93 -46 -138 -146 -136 -304 1 -122 24 -191 82 -249 83 -83
192 -91 302 -23 l45 28 3 79 3 80 -98 0 -98 0 -2 48 -2 48 140 -3 140 -3 4
-148 4 -147 -59 -44 c-108 -80 -227 -99 -342 -56 -174 65 -262 323 -191 563
57 193 231 291 408 230z m1650 0 c63 -21 127 -85 148 -148 22 -64 22 -70 -8
-83 -41 -19 -51 -14 -63 27 -35 116 -162 164 -280 105 -93 -46 -138 -146 -136
-304 1 -122 24 -191 83 -250 38 -38 59 -50 103 -60 69 -16 135 -2 202 41 l46
29 0 77 0 78 -87 -1 c-49 -1 -94 1 -100 3 -8 3 -12 22 -11 49 l2 44 142 0 141
0 0 -137 c0 -76 -3 -147 -7 -159 -10 -26 -101 -89 -160 -109 -113 -41 -251
-10 -332 72 -161 164 -153 511 15 672 68 65 201 89 302 54z m-2300 -385 c87
-216 159 -399 162 -405 4 -10 -17 -13 -84 -13 l-90 0 -34 90 -33 90 -165 -2
-164 -3 -31 -87 -31 -88 -87 0 -88 0 21 53 c12 28 81 207 155 396 74 189 137
348 140 352 3 5 43 9 89 9 l83 0 157 -392z m1063 -15 l2 -403 -45 0 -45 0 0
406 0 405 43 -3 42 -3 3 -402z m415 88 l172 -313 3 316 2 316 40 0 40 0 0
-405 0 -405 -44 0 -44 0 -174 317 -173 317 -3 -317 -2 -317 -40 0 -40 0 0 406
0 405 46 -3 46 -3 171 -314z m1182 -1365 c54 -25 94 -65 124 -125 33 -66 35
-80 9 -90 -64 -24 -64 -24 -77 18 -33 110 -142 160 -246 112 -91 -42 -128
-119 -133 -282 -6 -177 32 -279 121 -330 49 -27 142 -24 185 8 38 28 71 79 84
130 6 24 13 43 16 43 2 0 22 -5 44 -12 37 -11 38 -13 32 -42 -9 -45 -52 -126
-83 -159 -77 -83 -212 -105 -317 -51 -125 64 -192 242 -173 464 15 168 100
292 227 330 55 17 135 11 187 -14z m4200 -1 c124 -60 195 -206 195 -398 0
-247 -133 -415 -326 -410 -176 4 -304 176 -304 410 0 104 14 172 53 251 34 71
78 114 151 149 42 20 63 23 121 21 43 -3 86 -11 110 -23z m710 -1 c87 -41 159
-144 184 -262 16 -75 14 -208 -4 -277 -33 -126 -119 -229 -212 -256 -222 -63
-402 115 -403 398 0 99 14 170 47 242 36 75 78 120 148 153 53 26 69 29 130
25 40 -2 87 -12 110 -23z m-7642 -13 c85 -41 127 -115 127 -221 0 -111 -49
-190 -142 -230 -45 -19 -72 -23 -180 -24 l-128 -1 0 -152 0 -153 -85 0 -85 0
0 406 0 407 223 -5 c207 -4 226 -6 270 -27z m657 -363 c73 -216 135 -399 138
-405 3 -9 -10 -13 -47 -13 l-51 0 -37 120 -37 120 -142 0 -141 0 -34 -117 -34
-118 -49 -3 c-42 -3 -48 -1 -42 14 4 9 61 188 127 398 67 210 123 384 126 389
2 4 24 7 47 7 l43 0 133 -392z m637 369 c38 -20 76 -68 92 -116 17 -52 13
-140 -8 -188 -21 -45 -84 -98 -131 -108 l-28 -6 42 -44 c35 -36 186 -294 186
-318 0 -4 -24 -7 -52 -7 l-53 0 -67 128 c-113 216 -131 232 -260 232 l-58 0 0
-180 0 -180 -45 0 -45 0 0 406 0 406 198 -4 c163 -3 202 -6 229 -21z m703 -27
l0 -50 -110 0 -110 0 0 -355 0 -355 -45 0 -45 0 0 355 0 354 -107 3 -108 3 -3
33 c-6 65 -18 62 268 62 l260 0 0 -50z m198 -357 l2 -403 -45 0 -45 0 0 406 0
405 43 -3 42 -3 3 -402z m920 0 l2 -403 -45 0 -45 0 0 406 0 405 43 -3 42 -3
3 -402z m542 385 c133 -58 160 -306 44 -407 -46 -41 -90 -51 -226 -51 l-118 0
0 -165 0 -165 -45 0 -45 0 0 406 0 406 178 -4 c130 -3 186 -8 212 -20z m560
-370 c73 -216 135 -399 137 -405 4 -9 -9 -13 -46 -13 l-51 0 -37 120 -37 120
-142 0 -141 0 -34 -117 -34 -118 -49 -3 c-39 -3 -48 0 -43 11 3 8 60 187 127
398 67 211 124 387 127 392 2 4 24 7 47 7 l43 0 133 -392z m473 73 l172 -313
3 316 2 316 40 0 40 0 0 -405 0 -405 -44 0 -44 0 -174 317 -173 317 -3 -317
-2 -317 -40 0 -40 0 0 406 0 405 46 -3 46 -3 171 -314z m887 269 l0 -50 -110
0 -110 0 0 -355 0 -355 -45 0 -45 0 0 355 0 354 -107 3 -108 3 -3 33 c-6 65
-18 62 268 62 l260 0 0 -50z m710 28 c133 -57 160 -306 44 -407 -46 -41 -90
-51 -226 -51 l-118 0 0 -165 0 -165 -45 0 -45 0 0 406 0 406 178 -4 c128 -3
187 -9 212 -20z m1744 0 c3 -13 5 -171 5 -351 -1 -210 2 -332 9 -339 6 -6 67
-9 161 -6 l151 3 0 -47 0 -48 -205 0 -205 0 0 405 0 405 39 0 c32 0 40 -4 45
-22z"/>
<path d="M3270 7811 l0 -71 70 0 c80 0 110 19 110 68 0 51 -19 64 -103 70
l-77 5 0 -72z"/>
<path d="M4842 7855 c-71 -60 -66 -236 9 -289 49 -34 126 -9 154 50 15 33 20
118 9 173 -4 17 -19 45 -34 61 -37 40 -95 42 -138 5z"/>
<path d="M8583 7870 c-47 -19 -65 -78 -49 -162 10 -52 26 -48 26 6 0 49 9 61
40 51 26 -8 26 -39 0 -150 -17 -72 -19 -97 -10 -148 13 -83 13 -87 -9 -87 -27
0 -44 -26 -37 -56 6 -24 8 -25 25 -10 29 27 49 20 60 -21 16 -56 13 -77 -12
-101 -28 -26 -55 -28 -64 -4 -3 9 -16 31 -28 47 -43 58 -59 101 -64 170 l-6
70 -39 3 c-28 2 -47 -3 -68 -18 -17 -12 -36 -19 -47 -15 -13 4 -20 -1 -24 -16
-9 -34 8 -64 61 -105 27 -21 61 -54 76 -73 l27 -35 -33 -16 c-40 -18 -60 -55
-53 -94 8 -47 22 -56 87 -56 96 0 130 -31 104 -95 -18 -43 -34 -45 -47 -5 -7
19 -18 30 -29 30 -24 0 -35 -17 -21 -33 7 -9 5 -16 -10 -25 -24 -16 -24 -28 1
-35 12 -3 20 -14 20 -26 0 -25 41 -29 60 -6 14 17 40 20 40 5 0 -22 20 -8 26
18 3 15 14 53 25 85 10 31 19 61 19 66 0 5 -16 19 -35 31 -27 17 -35 28 -35
51 0 23 4 29 21 29 11 0 34 13 50 29 34 35 37 68 14 160 -14 52 -14 64 -2 88
20 39 12 189 -9 172 -24 -20 -17 22 18 107 17 43 31 91 31 107 0 48 -55 85
-100 67z"/>
<path d="M7216 7830 c-53 -17 -79 -46 -32 -34 33 8 56 -10 56 -45 0 -31 -16
-51 -42 -51 -10 0 -18 -5 -18 -11 0 -8 17 -10 56 -5 61 7 114 29 115 49 2 39
7 74 13 92 6 18 2 20 -46 21 -29 1 -75 -6 -102 -16z m58 -6 c20 -8 11 -24 -15
-24 -19 0 -25 11 -12 23 8 8 8 8 27 1z"/>
<path d="M8305 7835 c-16 -7 -38 -16 -47 -19 -34 -10 -20 -29 16 -22 28 5 37
3 45 -13 18 -32 13 -50 -20 -70 -24 -15 -27 -20 -14 -25 28 -10 48 -7 103 19
42 19 54 30 58 54 4 16 12 32 20 35 28 11 15 35 -18 35 -18 -1 -46 4 -61 10
-35 14 -44 13 -82 -4z m60 -14 c3 -5 -4 -13 -16 -16 -23 -8 -34 -1 -24 14 8
13 32 14 40 2z"/>
<path d="M6875 7830 c-4 -6 -1 -17 5 -25 9 -11 10 -18 1 -29 -17 -20 -4 -41
32 -52 17 -5 37 -19 43 -32 6 -13 21 -30 33 -38 11 -8 21 -22 21 -29 0 -8 15
-22 33 -31 17 -9 36 -23 40 -30 13 -23 55 -16 73 11 9 14 15 27 13 28 -2 1
-29 15 -59 30 -70 36 -101 75 -108 135 -6 64 -20 81 -43 51 l-17 -22 -11 21
c-12 23 -45 30 -56 12z"/>
<path d="M7640 7808 c-91 -46 -136 -168 -96 -262 21 -51 21 -54 -11 -58 -37
-4 -45 -38 -9 -38 29 0 56 -24 56 -49 0 -33 -44 -86 -74 -89 -35 -4 -81 36
-107 94 -18 41 -19 41 -56 33 -21 -5 -58 -12 -83 -16 -35 -6 -46 -13 -48 -28
-2 -17 10 -27 58 -50 33 -16 60 -32 60 -37 0 -4 -18 -8 -40 -8 -48 0 -80 -27
-80 -68 0 -34 31 -65 82 -81 51 -17 55 -27 16 -51 -33 -21 -62 -22 -132 -4
-27 6 -28 5 -23 -17 5 -19 1 -27 -15 -34 -30 -14 -34 -35 -10 -42 17 -4 20
-11 16 -32 -5 -22 -2 -27 15 -28 13 -1 28 8 37 23 17 25 44 33 44 12 0 -7 19
9 41 35 23 27 66 62 96 79 l54 31 -30 28 c-42 38 -40 57 6 61 30 2 42 10 58
35 12 19 29 32 40 33 28 0 62 26 80 60 21 40 38 119 36 161 -1 22 5 41 14 49
17 14 20 46 6 54 -5 4 -23 -8 -40 -25 -25 -24 -32 -28 -37 -15 -8 22 13 80 41
110 28 31 79 35 126 10 30 -15 31 -15 24 5 -6 19 -2 21 35 21 49 0 106 25 121
51 8 15 6 19 -8 19 -10 0 -56 12 -102 25 -104 30 -106 30 -161 3z"/>
<path d="M8074 7795 c-5 -20 -11 -24 -29 -19 -33 8 -41 -13 -16 -40 19 -20 20
-24 7 -29 -23 -9 -21 -47 2 -47 10 0 23 5 29 11 19 19 57 6 73 -26 8 -18 31
-38 53 -49 37 -18 39 -18 52 0 21 28 19 31 -38 68 -67 43 -78 57 -81 102 -5
53 -41 73 -52 29z"/>
<path d="M7380 7758 c0 -42 -37 -84 -106 -124 -88 -51 -114 -88 -114 -162 0
-44 3 -53 12 -44 7 7 26 12 43 12 16 0 44 9 60 20 20 14 39 18 58 14 16 -3 27
-1 27 5 0 7 8 7 24 1 23 -8 24 -7 20 23 -3 18 2 52 10 76 21 58 20 107 -4 159
-21 47 -30 53 -30 20z"/>
<path d="M8202 7763 c-19 -4 -21 -7 -11 -19 14 -17 52 -18 80 -3 41 21 -1 35
-69 22z"/>
<path d="M7112 7746 c-24 -6 -40 -14 -36 -19 11 -11 124 -9 124 3 0 8 -33 32
-42 29 -2 -1 -22 -6 -46 -13z"/>
<path d="M8452 7720 c-12 -16 -52 -47 -89 -69 -69 -39 -102 -69 -121 -107 -13
-25 -6 -35 37 -55 32 -14 37 -14 70 4 25 13 48 17 77 13 l40 -5 18 94 c17 87
15 155 -3 155 -4 0 -17 -13 -29 -30z"/>
<path d="M8010 7595 c-10 -12 -10 -21 -2 -40 11 -24 0 -36 -13 -15 -11 17 -44
11 -56 -11 -13 -26 3 -42 39 -36 30 6 38 -9 12 -23 -22 -12 -25 -27 -11 -49 8
-12 16 -10 50 13 40 28 61 28 61 0 0 -8 9 -14 19 -14 11 0 33 -11 49 -25 26
-22 72 -45 90 -45 4 0 5 22 4 49 l-4 49 -44 6 c-85 11 -110 28 -129 88 -23 68
-41 82 -65 53z"/>
<path d="M6885 7590 c-3 -5 -3 -15 0 -21 4 -6 -2 -17 -14 -25 -26 -19 -27 -30
-1 -37 16 -4 19 -11 14 -36 -6 -26 -3 -31 13 -31 10 0 24 5 31 12 9 9 17 9 36
-1 16 -9 29 -10 41 -4 11 7 30 5 58 -4 51 -18 67 -11 67 27 0 29 -1 30 -50 30
-66 0 -115 21 -134 58 -8 16 -23 32 -31 36 -22 8 -23 8 -30 -4z"/>
<path d="M7121 7335 c-14 -19 -18 -35 -14 -59 4 -28 2 -35 -15 -40 -29 -9 -72
10 -72 33 0 32 -33 65 -58 57 -24 -8 -27 -22 -12 -46 7 -12 4 -16 -18 -20 -21
-4 -27 -11 -27 -30 0 -20 5 -25 23 -23 16 2 22 -2 22 -17 0 -24 41 -28 60 -5
16 19 37 19 48 0 7 -13 14 -14 36 -5 15 5 40 10 55 10 26 0 28 3 28 42 0 33 6
47 28 65 15 13 26 25 24 27 -56 43 -80 45 -108 11z"/>
<path d="M8292 7258 c-7 -7 -12 -27 -12 -46 0 -92 -75 -99 -109 -9 -14 35 -38
45 -59 23 -15 -15 -15 -18 -2 -26 12 -8 11 -11 -7 -16 -29 -8 -31 -44 -3 -51
11 -3 17 -9 14 -15 -3 -5 0 -15 6 -23 9 -11 16 -12 31 -2 15 9 23 9 39 -1 15
-9 26 -10 40 -2 10 5 35 10 54 10 31 0 36 3 36 24 0 13 11 40 25 60 14 20 25
43 25 49 0 20 -22 37 -45 37 -12 0 -26 -5 -33 -12z"/>
<path d="M5124 6771 c-49 -22 -98 -79 -120 -140 -41 -116 -25 -324 32 -398 82
-108 208 -125 299 -42 62 57 86 121 93 244 8 176 -44 295 -151 340 -48 20
-103 19 -153 -4z"/>
<path d="M5846 6775 c-94 -33 -145 -128 -153 -285 -13 -238 98 -378 272 -346
50 10 117 74 145 139 32 72 39 229 16 311 -46 158 -153 227 -280 181z"/>
<path d="M2206 6722 c-5 -32 -75 -271 -93 -318 -4 -11 15 -14 107 -14 111 0
112 0 108 23 -12 55 -104 347 -109 347 -4 0 -9 -17 -13 -38z"/>
<path d="M3820 6645 l0 -135 120 0 c139 0 179 12 210 62 29 45 23 127 -10 163
-33 35 -78 45 -207 45 l-113 0 0 -135z"/>
<path d="M7755 6609 c-4 -5 -22 -16 -41 -24 -36 -15 -48 -37 -15 -28 13 3 23
-2 31 -16 14 -28 5 -55 -23 -69 -21 -10 -21 -11 6 -11 15 -1 56 12 91 28 54
24 65 34 71 59 3 17 13 36 21 43 8 6 14 14 14 18 0 10 -149 11 -155 0z m59
-18 c7 -10 -33 -23 -46 -15 -5 3 -6 10 -3 15 8 12 42 12 49 0z"/>
<path d="M7875 6506 c-24 -25 -57 -46 -82 -54 -53 -16 -102 -56 -119 -99 -18
-42 -18 -46 5 -33 27 14 31 13 31 -9 0 -17 4 -19 32 -10 46 13 58 11 58 -7 0
-8 14 -29 30 -46 26 -26 33 -28 47 -17 9 8 25 13 35 11 17 -3 18 -1 8 19 -8
14 -10 43 -6 83 16 154 18 188 10 195 -5 4 -27 -11 -49 -33z"/>
<path d="M7630 6521 c-24 -7 -24 -8 -5 -18 11 -6 25 -9 30 -8 6 2 23 6 39 10
23 5 27 8 15 16 -16 10 -43 10 -79 0z"/>
<path d="M7555 6489 c-4 -5 -4 -22 0 -37 l7 -27 -30 28 c-26 25 -33 27 -52 17
-27 -14 -22 -31 16 -50 l29 -15 -27 -3 c-22 -3 -28 -9 -28 -28 0 -20 5 -24 29
-24 17 0 33 5 36 10 10 17 33 11 40 -9 5 -16 11 -18 37 -10 36 10 34 8 42 34
4 15 -2 24 -25 38 -19 10 -29 23 -26 31 6 15 -19 56 -33 56 -5 0 -12 -5 -15
-11z"/>
<path d="M7996 6444 c-18 -17 -22 -79 -6 -89 14 -9 42 -64 50 -100 l7 -30 19
40 c10 22 25 46 32 53 17 19 15 26 -14 62 -30 35 -26 48 11 32 63 -29 75 -192
15 -192 -12 0 -18 -5 -15 -10 3 -6 -6 -15 -22 -21 -33 -12 -43 -26 -43 -58 0
-24 0 -24 21 -5 29 26 55 8 52 -37 -1 -24 -11 -42 -32 -61 -44 -39 -84 -37
-127 6 -29 29 -34 41 -34 79 0 62 -16 103 -34 88 -19 -16 -39 -6 -72 39 -28
37 -31 39 -74 33 -58 -7 -65 -14 -51 -56 10 -29 24 -41 84 -72 92 -47 100 -55
56 -55 -57 0 -86 -49 -59 -100 6 -11 42 -38 80 -60 38 -22 72 -44 75 -49 8
-13 -15 -59 -33 -66 -19 -7 -52 22 -52 45 0 18 -19 30 -47 30 -11 0 -14 -7
-11 -25 4 -21 1 -25 -18 -25 -12 0 -30 -7 -39 -17 -16 -15 -16 -17 0 -26 9 -5
25 -7 36 -4 23 6 25 -6 4 -23 -8 -7 -15 -23 -15 -35 0 -18 4 -21 26 -17 15 3
29 14 35 29 11 31 37 40 52 19 18 -25 53 -4 111 67 48 57 49 60 30 73 -40 29
-64 57 -64 75 0 16 4 17 31 7 38 -13 95 -4 120 18 10 9 33 41 50 72 17 30 39
57 50 59 13 4 19 14 19 35 0 17 9 42 20 58 20 28 20 28 0 33 -11 3 -23 1 -26
-4 -13 -21 -24 -6 -24 34 0 53 -29 117 -65 145 -33 26 -87 29 -109 6z"/>
<path d="M7365 6350 c-3 -5 -1 -19 5 -30 10 -18 8 -20 -19 -20 -21 0 -32 -6
-36 -20 -8 -26 1 -40 26 -40 12 0 19 -7 19 -20 0 -13 7 -20 20 -20 10 0 24 9
30 20 13 23 40 27 40 5 0 -12 8 -14 40 -9 29 5 53 1 89 -15 27 -11 59 -21 71
-21 17 0 19 3 10 19 -5 11 -10 31 -10 45 0 24 -2 25 -47 20 -27 -3 -70 1 -98
8 -43 11 -52 18 -68 51 -13 28 -23 37 -41 37 -14 0 -28 -4 -31 -10z"/>
<path d="M7627 6122 c-22 -24 -22 -50 0 -74 20 -22 15 -27 -28 -34 -45 -7 -87
10 -98 39 -12 32 -36 40 -57 20 -15 -15 -15 -18 0 -28 22 -17 20 -28 -3 -20
-14 4 -23 0 -31 -15 -14 -26 -6 -40 20 -33 17 5 20 0 20 -26 0 -36 26 -43 54
-13 20 23 76 27 76 6 0 -18 -1 -18 62 11 29 14 62 25 73 25 18 0 20 5 17 43
-3 31 1 49 12 60 15 15 14 18 -23 37 -50 25 -73 25 -94 2z"/>
<path d="M12080 6539 c-19 -4 -62 -13 -95 -20 -81 -15 -146 -36 -173 -54 -17
-12 -20 -22 -15 -45 7 -35 -12 -40 -53 -14 -34 23 -96 13 -173 -28 -76 -40
-161 -126 -161 -162 0 -35 -35 -36 -44 -2 -8 32 -38 41 -75 21 -103 -53 -279
-324 -241 -370 19 -23 6 -39 -42 -52 -60 -16 -83 -60 -81 -155 1 -58 -1 -68
-18 -73 -30 -10 -46 -51 -70 -179 -21 -113 -21 -120 -5 -184 17 -68 64 -172
93 -204 22 -25 38 -22 57 7 22 34 74 65 109 65 37 0 35 -27 -3 -35 -57 -13
-110 -74 -110 -129 0 -15 12 -34 32 -51 60 -50 130 -68 288 -72 63 -1 131 -4
151 -5 27 -2 47 5 74 26 l37 29 56 -18 c55 -17 56 -17 73 4 10 11 24 21 33 21
13 0 16 -13 16 -69 0 -112 31 -161 125 -197 42 -15 45 -20 65 -82 12 -37 30
-78 40 -92 50 -71 207 -102 385 -76 198 29 199 29 211 53 6 13 26 33 45 46 44
30 41 56 -12 114 -22 24 -37 48 -34 53 8 13 6 14 45 -15 18 -13 44 -43 57 -67
21 -36 22 -46 12 -70 -6 -15 -15 -28 -20 -28 -5 0 -9 -7 -9 -16 0 -13 8 -14
48 -8 62 9 104 26 161 68 25 18 56 36 68 40 30 9 82 64 99 105 17 39 18 138 3
178 -13 35 -47 72 -76 84 -23 9 -22 39 1 39 23 0 84 -61 105 -105 49 -105 7
-256 -91 -319 -41 -27 -35 -40 14 -32 51 8 221 97 266 139 26 25 32 39 32 72
0 66 18 102 61 128 24 15 52 45 72 78 45 75 147 149 147 107 0 -7 -16 -24 -36
-37 -38 -26 -82 -85 -103 -138 -9 -23 -20 -33 -35 -33 -46 -1 -79 -56 -63
-105 12 -36 45 -75 65 -75 8 0 26 -8 40 -19 15 -10 54 -26 87 -36 33 -9 103
-39 155 -66 52 -27 102 -49 112 -49 21 0 58 38 58 59 0 9 -9 22 -20 29 -21 13
-26 37 -10 47 5 3 24 -1 41 -10 30 -16 32 -16 56 7 14 13 29 32 33 43 4 11 17
44 29 73 21 52 21 52 1 72 -25 25 -25 46 0 53 30 8 41 51 38 146 l-3 86 -37
-3 c-32 -3 -38 0 -38 15 0 12 12 23 34 31 63 23 69 39 64 154 -5 111 -23 169
-57 188 -19 10 -23 7 -36 -24 -9 -20 -22 -36 -30 -36 -30 0 -29 33 3 91 36 65
40 94 15 122 -12 13 -18 36 -19 71 0 34 -8 65 -21 87 -11 19 -35 61 -53 94
-17 33 -43 75 -56 93 -23 29 -30 32 -76 32 -69 0 -113 -29 -134 -90 -30 -84
-33 -90 -54 -90 -20 0 -28 24 -11 35 5 3 17 27 26 53 21 62 43 87 104 117 28
15 51 28 51 30 0 8 -236 241 -270 267 -32 24 -90 47 -90 35 0 -2 7 -21 16 -42
17 -43 15 -90 -5 -90 -7 0 -22 24 -33 53 -11 29 -35 69 -54 88 -38 37 -168
107 -222 119 -32 7 -33 6 -25 -22 4 -15 8 -59 8 -98 0 -64 -2 -70 -21 -73 -20
-3 -21 2 -21 65 -1 77 -23 144 -56 166 -40 25 -126 43 -147 29 -21 -13 -46 -7
-54 13 -2 7 -21 18 -42 25 -30 10 -49 9 -110 -5 -68 -16 -76 -16 -99 -1 -13 9
-45 16 -70 16 l-46 0 41 -39 c40 -38 41 -40 38 -97 -2 -47 -7 -59 -20 -62 -15
-3 -18 4 -18 46 0 58 -14 74 -109 121 -67 32 -117 38 -191 20z m715 -79 c10
-16 -7 -32 -71 -65 -100 -52 -156 -128 -170 -228 -10 -78 -14 -87 -34 -87 -33
0 -113 -50 -167 -105 -42 -43 -53 -62 -58 -99 -4 -25 -4 -57 -1 -71 8 -32 77
-83 125 -91 44 -8 61 -21 61 -46 0 -22 48 -71 88 -90 15 -7 27 -17 27 -23 1
-41 -118 28 -147 86 -15 30 -27 39 -64 48 -28 7 -61 26 -86 49 -33 31 -41 46
-45 85 -11 94 81 215 210 277 51 25 52 26 60 80 10 71 50 154 90 184 38 28
159 104 169 105 4 1 10 -4 13 -9z m-916 -114 c18 -14 46 -43 63 -65 l29 -41
58 6 c66 7 199 -16 274 -48 49 -21 102 -72 91 -89 -7 -12 -34 -12 -34 1 0 15
-70 58 -125 76 -33 11 -91 17 -170 19 l-119 2 -22 34 c-12 19 -40 51 -63 72
-23 21 -39 42 -36 48 9 14 18 11 54 -15z m1259 -243 c28 -13 52 -31 52 -39 0
-20 -16 -18 -76 12 -43 21 -62 25 -91 19 -48 -9 -47 -9 -51 4 -5 16 58 41 88
34 14 -2 49 -16 78 -30z m-1749 -78 c23 -21 48 -58 61 -90 l22 -55 49 0 c27 0
67 -7 89 -16 38 -15 42 -15 75 5 58 34 110 44 168 31 64 -13 99 -36 77 -50 -9
-5 -27 -3 -48 6 -57 23 -144 13 -181 -22 -13 -12 -13 -16 1 -31 9 -10 24 -36
35 -58 18 -38 20 -40 60 -37 52 4 135 -33 180 -80 34 -36 95 -147 87 -160 -13
-20 -32 -4 -54 44 -29 64 -95 131 -144 148 -23 7 -55 9 -82 5 -24 -3 -47 -6
-51 -6 -4 0 -12 17 -18 38 -17 58 -35 81 -89 116 -43 27 -59 32 -114 32 -71 0
-70 -1 -98 78 -9 26 -31 59 -48 74 -28 23 -36 25 -93 20 -36 -4 -65 -2 -68 4
-9 14 54 38 102 39 35 0 50 -6 82 -35z m1651 -141 c0 -7 15 -28 33 -47 59 -63
167 -73 235 -21 31 24 62 27 62 5 0 -13 -50 -48 -95 -67 -28 -12 -35 -19 -30
-34 10 -32 -14 -98 -47 -129 -22 -21 -46 -32 -80 -36 -49 -7 -78 -25 -78 -50
0 -42 -160 -117 -205 -97 -18 8 -33 5 -71 -14 -42 -22 -57 -25 -106 -19 -53 5
-58 4 -73 -19 -25 -37 -72 -54 -207 -76 -68 -10 -136 -23 -153 -28 -46 -15
-128 -53 -145 -67 -13 -11 -27 -6 -88 36 -57 38 -82 49 -113 49 -65 0 -103 23
-160 95 -62 79 -99 99 -165 89 -36 -5 -44 -3 -44 9 0 22 81 33 131 18 29 -9
52 -29 98 -85 51 -62 67 -75 105 -85 25 -6 56 -11 69 -11 14 0 52 -18 85 -41
l61 -40 57 27 c78 37 219 74 281 74 57 0 128 26 156 58 14 15 17 29 12 51 -7
35 12 43 35 15 39 -46 118 -48 167 -3 20 19 26 21 48 11 37 -17 67 -15 119 8
46 19 86 67 86 103 0 9 6 17 13 18 6 1 28 2 48 3 58 4 96 25 113 61 29 60 18
105 -25 105 -29 0 -89 29 -122 58 -42 37 -63 136 -22 102 8 -7 15 -18 15 -26z
m505 -285 c4 -5 -5 -28 -20 -50 -19 -29 -42 -48 -81 -65 -30 -13 -61 -24 -69
-24 -8 0 -26 -17 -39 -37 -28 -45 -64 -78 -131 -124 -60 -40 -95 -70 -95 -80
0 -5 16 -15 35 -25 35 -16 55 -56 55 -114 0 -38 10 -46 68 -59 72 -15 143 -13
166 4 25 19 36 19 36 0 0 -8 -15 -25 -32 -36 -34 -21 -41 -21 -194 -3 -59 7
-71 23 -81 106 -10 80 -32 88 -175 62 -48 -8 -88 2 -88 22 0 13 7 15 32 12 53
-8 95 10 166 71 37 31 88 72 114 89 44 30 76 67 104 117 6 11 30 24 55 30 67
18 105 41 129 80 22 36 34 43 45 24z m-2461 -95 c68 -23 164 -116 222 -215 25
-44 59 -92 74 -107 36 -37 189 -99 200 -82 10 17 60 7 128 -25 49 -23 73 -48
58 -62 -3 -3 -16 -1 -28 6 -13 7 -39 21 -58 31 -32 17 -90 27 -90 15 0 -2 7
-20 16 -39 20 -40 13 -76 -11 -56 -8 7 -15 18 -15 25 0 26 -51 73 -102 94 -29
12 -69 30 -88 40 -42 21 -94 14 -140 -21 -21 -15 -33 -19 -41 -11 -12 12 56
73 83 73 32 0 29 20 -18 97 -78 131 -173 213 -246 213 -26 0 -37 17 -21 33 10
10 25 9 77 -9z m986 -549 c38 -19 74 -68 93 -125 l15 -45 70 -5 c60 -4 78 -10
119 -39 l48 -34 46 17 c26 9 68 16 93 16 72 0 170 -54 136 -75 -5 -3 -27 3
-49 14 -66 34 -109 36 -166 7 -62 -32 -66 -32 -96 0 -38 41 -79 57 -150 59
-37 2 -71 5 -77 9 -5 3 -13 23 -17 43 -20 116 -134 175 -235 123 -47 -24 -50
-24 -50 -6 0 54 143 81 220 41z m1668 -28 c12 -12 27 -35 36 -51 13 -27 19
-29 73 -30 47 -1 58 -4 61 -19 3 -16 -1 -18 -41 -12 -50 8 -56 3 -72 -60 -15
-56 -29 -46 -36 23 -6 62 -37 125 -70 142 -23 13 -14 40 11 33 10 -3 27 -15
38 -26z m-1708 -321 c73 -77 122 -89 282 -64 87 13 137 4 176 -32 44 -41 13
-56 -40 -19 -26 19 -38 21 -106 15 -42 -3 -95 -9 -116 -12 -71 -12 -140 12
-201 68 -30 27 -55 59 -55 69 0 29 15 23 60 -25z"/>
<path d="M13290 4591 c0 -11 -72 -56 -184 -116 -86 -45 -93 -47 -160 -44 -62
3 -78 0 -130 -26 -41 -20 -78 -30 -120 -32 -104 -6 -106 -7 -106 -57 0 -102
125 -267 248 -327 67 -34 68 -34 212 -34 124 0 154 3 206 22 83 30 157 76 228
143 100 94 208 256 194 292 -7 17 -116 71 -200 98 -37 12 -87 37 -112 56 -43
33 -76 44 -76 25z"/>
<path d="M1150 5041 c0 -98 1 -101 23 -102 127 -4 230 2 256 15 55 29 62 113
14 158 -23 21 -34 23 -159 26 l-134 4 0 -101z"/>
<path d="M3846 5132 c-5 -32 -75 -271 -93 -318 -4 -11 16 -14 110 -14 l115 0
-43 135 c-24 74 -48 157 -55 185 -7 27 -15 50 -20 50 -4 0 -10 -17 -14 -38z"/>
<path d="M4340 5055 l0 -135 120 0 c139 0 179 12 210 62 16 25 20 45 17 85 -7
98 -52 123 -227 123 l-120 0 0 -135z"/>
<path d="M1291 3400 c-6 -14 -30 -79 -54 -145 l-44 -120 105 -3 c58 -1 106 -1
108 1 2 1 -21 68 -50 147 -49 132 -55 143 -65 120z"/>
<path d="M8215 1855 c-50 -17 -108 -81 -130 -143 -26 -71 -31 -223 -11 -301
35 -138 136 -210 261 -187 50 10 117 74 145 138 27 63 38 208 21 289 -35 169
-151 251 -286 204z"/>
<path d="M8914 1851 c-49 -22 -98 -79 -120 -140 -41 -116 -25 -324 32 -398 82
-108 208 -125 299 -42 63 58 87 122 93 245 8 176 -45 294 -151 339 -48 20
-103 19 -153 -4z"/>
<path d="M1150 1694 l0 -115 88 2 c48 1 101 6 117 10 46 13 75 53 75 102 0 86
-50 117 -190 117 l-90 0 0 -116z"/>
<path d="M1936 1802 c-5 -32 -75 -271 -93 -318 -4 -11 15 -14 106 -14 73 0
111 4 111 11 0 6 -20 74 -44 152 -24 78 -47 157 -51 175 -9 43 -21 41 -29 -6z"/>
<path d="M2430 1725 l0 -135 120 0 c139 0 179 12 210 62 16 25 20 45 17 85 -7
98 -52 123 -227 123 l-120 0 0 -135z"/>
<path d="M4830 1705 l0 -145 93 0 c155 1 206 24 228 103 16 59 2 116 -36 154
l-33 33 -126 0 -126 0 0 -145z"/>
<path d="M5500 1817 c0 -18 -73 -272 -95 -329 -7 -17 2 -18 108 -18 l115 0
-43 135 c-24 74 -48 157 -55 185 -12 51 -30 68 -30 27z"/>
<path d="M7460 1704 l0 -145 102 2 c56 1 116 5 132 10 97 28 126 171 50 247
l-32 32 -126 0 -126 0 0 -146z"/>
</g>
</svg>
